<svg xmlns="http://www.w3.org/2000/svg" viewBox="0 0 204.89198 123.32107"><defs><style>.cls-3{fill:#f19e5c}.cls-9{fill:#414042}</style></defs><g id="Layer_2" data-name="Layer 2"><path d="M37.97938 80.4336c-2.38691 6.944-6.56757 9.44037-14.00645 8.48967-6.83531-.87357-13.67982-1.67765-20.52649-2.45783A4.8718 4.8718 0 0 1 0 84.466v-4.00217c.90663-1.91906.45135-4.09084 1.12339-6.0534C3.313 75.99964 5.9401 75.699 8.40215 76.04q7.47034 1.03455 14.96874 1.86349c3.27033.36636 6.53319 1.14966 9.818-.24255a16.97859 16.97859 0 0 0 5.56481-4.35814Z" style="fill:#e53911"/><path d="M37.97938 80.4336q.38715-3.56541.77456-7.131c.94141-7.37347 1.905-14.74395 2.81835-22.12063q1.93276-15.60952 3.80712-31.22627c3.578.23572 7.16192.40855 10.73041.745 1.08773.10256 1.40454-.45443 1.77355-1.18773q1.66063-3.3001 3.335-6.59331c2.49645-4.89085 6.09889-6.40494 11.34762-4.928 5.55842 1.56413 11.1469 3.02145 16.7222 4.52524-.48775.78116-.99518 1.551-1.45988 2.34574q-3.92561 6.714-7.83219 13.43913c-4.19966 7.24748-8.45066 14.46637-12.55 21.7703-1.873 3.33727-.58072 6.62 3.049 7.75174 7.47865 2.33189 14.31674 1.31342 20.03069-4.44861 3.14443-3.1709 5.57249-6.9307 8.2974-10.43917 1.24274-1.60011 1.86141-1.27438 3.03486-.11212a25.99318 25.99318 0 0 0 13.00964 6.94c1.63129.35981 3.44116-.01433 4.87683 1.36369 1.96142 1.88263 4.09142 3.59 6.15477 5.366q9.28182 7.98906 18.56813 15.973c1.35287 1.17318 2.68835 2.36714 4.06323 3.51385 1.41213 1.17778 2.48637 2.80624 4.39134 3.33608-.06072.58652.567.72628.74954 1.155-.56333 1.36319.47951 2.59889.25594 3.98817-.61146 3.79953-3.25535 5.95055-6.15743 7.898a1.8084 1.8084 0 0 1-2.46045-.375c-2.49088-2.28579-5.12553-4.4157-7.71792-6.58987-1.61073-1.35086-3.09292-1.293-4.38648.12827-1.17408 1.29-1.07656 2.79273.33026 4.20079a25.17431 25.17431 0 0 0 2.23113 1.98413c.61029.48047.96815.97051.38594 1.65461-1.677 1.97049-3.30086 3.996-5.10236 5.8473-1.1751 1.20764-2.46716 1.20106-3.82251-.11985-1.94538-1.89595-4.06516-3.61586-6.14549-5.36942a2.8071 2.8071 0 0 0-4.23807.156c-1.209 1.28694-1.15421 2.82312.23239 4.19733a16.7021 16.7021 0 0 0 1.77229 1.37572c-1.20665 2.52835-6.309 7.96365-8.1627 8.87321a10.80156 10.80156 0 0 1-6.99756.51513c-.22169-7.55379-4.9756-10.18366-12.68792-6.90772.70058-3.67187.339-7.03306-3.1494-9.10129-3.74256-2.219-7.11566-1.38523-10.26341 2.292.792-4.50976-.03727-7.86549-3.97325-9.63868-3.9154-1.76391-7.11593-.31708-9.98626 3.20605 1.17671-6.50918-2.26486-10.54199-8.00315-10.24341-2.45006.12747-3.89951 1.794-5.54547 3.21009a39.55652 39.55652 0 0 0-7.20822-.74731 30.34686 30.34686 0 0 1-4.89207-.47218Z" style="fill:#f8c194"/><path d="M144.46737 72.46664q-9.28431-7.98617-18.568-15.973c-2.06335-1.776-4.19335-3.48334-6.15477-5.366-1.43567-1.378-3.24554-1.00388-4.87683-1.36369a25.99318 25.99318 0 0 1-13.00964-6.94c-1.17345-1.16226-1.79212-1.488-3.03486.11212-2.72491 3.50847-5.153 7.26827-8.2974 10.43917-5.71395 5.762-12.552 6.7805-20.03069 4.44861-3.62976-1.13177-4.92208-4.41447-3.049-7.75174 4.09932-7.30393 8.35032-14.52282 12.55-21.7703q3.89937-6.72927 7.83219-13.43913c.4647-.79478.97213-1.56458 1.45988-2.34574 2.90472-3.51227 6.98332-4.07623 11.145-4.45762q12.81258-1.17416 25.622-2.38208a13.30959 13.30959 0 0 1 8.0586 1.73624c5.20693 2.9663 10.4752 5.82681 15.64177 8.86105a7.50754 7.50754 0 0 0 6.04878 1.09935 20.39843 20.39843 0 0 1 3.37767-.33824c1.07875 8.55634 2.18722 17.10755 3.22637 25.66717.89518 7.37358 1.71138 14.75674 2.56232 22.13565-2.61719.28506-5.26862.39872-7.83924.91485-1.7469.35075-3.6893-.16032-5.23164.86334a48.13943 48.13943 0 0 0-7.43251 5.84999Z" class="cls-3"/><path d="M164.97084 64.83849c-.85112-7.37892-1.66732-14.76208-2.5625-22.13566-1.03915-8.55962-2.14762-17.11083-3.22637-25.66716-.68388-4.07017-.12419-7.78655 2.83883-10.93991 2.5285-2.69094 5.84027-3.23221 9.2351-3.6506C177.45762 1.68084 183.66249.93993 189.85773.126c3.72579-.48949 4.9489.45108 5.40547 4.19647q2.75115 22.56827 5.54692 45.1311c1.01527 8.31485 1.98439 16.63534 2.97418 24.95339-2.223 1.47185-4.823 1.30763-7.29666 1.63988-4.98178.6691-9.96816 1.31521-14.96495 1.85737-3.1986.347-6.38363 1.14469-9.62327-.18864a15.93552 15.93552 0 0 1-5.72855-4.45326Zm26.41672 5.18113a5.68767 5.68767 0 1 0-5.59646 5.72527 5.44842 5.44842 0 0 0 5.59646-5.72527Z" style="fill:#2e52bc"/><path d="M45.37942 19.95569Q43.47855 35.56916 41.57229 51.182c-.91337 7.37668-1.87694 14.74716-2.81835 22.12063a16.97981 16.97981 0 0 1-5.5651 4.35832c-3.28476 1.39221-6.54762.60891-9.81795.24255q-7.495-.83965-14.96874-1.86349c-2.46205-.341-5.08914-.04033-7.27876-1.62954Q2.8461 60.13506 4.572 45.86018q1.902-15.56085 3.84284-31.117c.48283-3.89736.916-7.8024 1.49126-11.68626.35447-2.39356 1.44982-3.28536 3.84504-3.00816 7.73665.89536 15.491 1.70978 23.179 2.93074 6.17954.98141 9.87559 6.62086 8.94394 12.81659-.20754 1.38012-.33198 2.77274-.49466 4.1596ZM13.15514 70.12755a5.70118 5.70118 0 0 0 5.7079 5.733A5.80358 5.80358 0 1 0 18.728 64.257a5.70543 5.70543 0 0 0-5.57286 5.87055Z" style="fill:#ff3724"/><path d="M50.07967 81.653c1.646-1.41607 3.09541-3.08262 5.54547-3.21009 5.73829-.29853 9.17985 3.73428 8.00318 10.24339 2.87033-3.52313 6.07086-4.97 9.98626-3.20605 3.936 1.77319 4.76525 5.12892 3.97325 9.63868 3.14775-3.67718 6.52085-4.5109 10.26341-2.29195 3.48836 2.06823 3.85 5.42942 3.1494 9.10129 7.71232-3.27594 12.46623-.64607 12.68756 6.90818a19.41 19.41 0 0 1-3.28073 5.61632 36.1204 36.1204 0 0 0-4.381 6.10882c-1.7237 1.35353-3.39136 2.74064-5.79506 2.75917a7.386 7.386 0 0 1-7.52178-9.00047c.07073-.38154.07991-.77448.152-1.51434-3.21694 1.90877-6.304 2.17511-9.2254.03607-2.9169-2.13572-3.44116-5.17585-2.64267-8.92893-3.40252 1.65048-6.52977 2.09479-9.408-.18665-2.83718-2.24895-3.34988-5.25891-2.41572-8.62385-.85041-.36239-1.298.305-1.848.54246a7.48352 7.48352 0 0 1-8.71215-1.94786 7.4021 7.4021 0 0 1-.69384-8.72493c.66872-1.14587 1.75061-2.01426 2.16382-3.31926Z" class="cls-3"/><path d="M96.02648 120.56163a36.1204 36.1204 0 0 1 4.381-6.10882 19.41 19.41 0 0 0 3.28073-5.61632 10.80556 10.80556 0 0 0 6.99792-.51559c1.85375-.90956 6.956-6.34486 8.1627-8.87321a16.7021 16.7021 0 0 1-1.77229-1.37572c-1.3866-1.37421-1.44138-2.91039-.23239-4.19733a2.8071 2.8071 0 0 1 4.23807-.156c2.08033 1.75356 4.20011 3.47347 6.14549 5.36942 1.35535 1.32091 2.64741 1.32749 3.82251.11985 1.8015-1.85134 3.42535-3.87681 5.10236-5.8473.58221-.6841.22435-1.17414-.38594-1.65461a25.17431 25.17431 0 0 1-2.23113-1.98413c-1.40682-1.40806-1.50434-2.91078-.33026-4.20079 1.29356-1.42129 2.77575-1.47913 4.38648-.12827 2.59239 2.17417 5.227 4.30408 7.71792 6.58987a1.8084 1.8084 0 0 0 2.46045.375c2.90208-1.94746 5.546-4.09848 6.15743-7.898.22357-1.38928-.81927-2.625-.25594-3.98817 1.658 1.436 3.37483 2.81028 4.96121 4.32149 2.78254 2.65069 2.95572 6.12265.5625 9.12552-3.96938 4.98057-7.08759 5.67772-13.39594 2.88482-1.71756 1.94764-3.48494 3.92591-5.22363 5.92906-3.05274 3.517-7.02454 4.33037-11.07182 2.08693a1.34421 1.34421 0 0 0-2.006.40724c-1.21918 1.40814-2.47865 2.78143-3.69476 4.19217-4.12307 4.78294-7.30309 5.388-12.90558 2.28946-1.69528 1.96519-3.4342 3.95914-5.14891 5.97369-2.7473 3.22772-5.94706 4.18421-9.72218 2.87974Z" style="fill:#e49f6b"/><path d="M166.17086 73.2623a15.93564 15.93564 0 0 0 5.72856 4.45326c3.23964 1.33333 6.42467.53568 9.62327.18864 4.99679-.54216 9.98317-1.18827 14.96495-1.85737 2.47366-.33225 5.07369-.168 7.29666-1.63988.37418 2.81694.84832 5.62547 1.08888 8.45387.175 2.05787-.87691 3.26054-2.95286 3.52781-7.62679.98193-15.24886 2.029-22.89811 2.799-6.27371.63155-11.27653-3.56274-12.14709-9.77643-.10111-.72165-.28141-1.43221-.425-2.14791q-.13958-2.00049-.27926-4.00099Z" style="fill:#0e1f81"/><path d="M166.17086 73.2623q.13968 2.00049.27929 4.001c-2.53189.00611-5.07543.16548-7.59221-.0262a7.01912 7.01912 0 0 0-5.93588 2.0794c-1.905-.52978-2.97923-2.15824-4.39136-3.336-1.37488-1.14671-2.71036-2.34067-4.06323-3.51385a48.136 48.136 0 0 1 7.43231-5.84993c1.54234-1.02366 3.48474-.51259 5.23164-.86334 2.57062-.51613 5.222-.62979 7.83925-.91485q.60027 4.21186 1.20019 8.42377Z" style="fill:#d27d43"/><path d="M191.38756 70.01962a5.68764 5.68764 0 1 1-5.67694-5.64557 5.45408 5.45408 0 0 1 5.67694 5.64557ZM13.15514 70.12755A5.70543 5.70543 0 0 1 18.728 64.257a5.80358 5.80358 0 1 1 .135 11.60347 5.70118 5.70118 0 0 1-5.70786-5.73292Z" class="cls-9"/></g></svg>