<svg xmlns="http://www.w3.org/2000/svg" viewBox="0 0 139.10393 170.15289"><defs><style>.cls-1{fill:#666;}.cls-2{fill:#4e4e4e;}.cls-3{fill:#ff3724;}.cls-4{fill:#e53911;}.cls-5{fill:#d03622;}.cls-6{fill:#e44728;}.cls-7{fill:#fefefe;}.cls-8{fill:#f85428;}</style></defs><g id="Layer_2" data-name="Layer 2"><path class="cls-1" d="M87.78911,0c.58636.617,1.41893.46265,2.13064.62489a25.171,25.171,0,0,1,19.44958,24.00205c.04277,3.20205.0447,6.40464.06523,9.60689-.0171.66157-.04832,1.32323-.04878,1.98491-.00421,6.0175.00888,12.035-.0108,18.05248a3.86279,3.86279,0,0,1-2.43744,3.95356,3.92013,3.92013,0,0,1-4.187-.66044c-1.28383-1.05891-1.37542-2.56512-1.39241-4.0779q.00232-9.633.00437-19.26613c.01572-3.099.07807-6.1986.03858-9.2969A17.07173,17.07173,0,0,0,82.82442,8.04775c-1.73482.14884-3.6521.1165-5.02051,1.59469a8.92693,8.92693,0,0,0-6.30245,4.66345c-.57312-.12033-.75.34911-1.002.68771a15.64806,15.64806,0,0,0-2.65586,5.44652c-1.17772,4.55261-.511,9.19035-.60372,13.79307-.017.7169-.04834,1.4338-.04885,2.15071-.00425,5.96229.00883,11.92462-.01021,17.88686a3.86361,3.86361,0,0,1-2.43707,3.95379,3.91664,3.91664,0,0,1-4.18675-.66017c-1.282-1.05874-1.37758-2.56448-1.3939-4.07782q.00236-9.63306.00443-19.26624c.01668-2.82147.07233-5.64335.04184-8.4643a25.35582,25.35582,0,0,1,4.79639-15.40073c.26421-.37009.80463-.69231.37215-1.27854,2.41355-1.54114,4.35482-3.641,6.50212-5.49713,1.356-.15344,2.337-1.16145,3.5831-1.5704C76.47207,1.34993,78.47451.67077,80.4797,0Z"/><path class="cls-2" d="M70.88,3.57962c-2.1473,1.85613-4.08857,3.956-6.5021,5.49712-.26659-.06895-.53773-.124-.79917-.20883A17.02163,17.02163,0,0,0,41.20719,22.92525c-.48866,3.7344-.1152,7.4977-.20931,11.2465l-5.69468.11175L33.02544,34.184c.15755-4.63538-.48818-9.32135.53528-13.89962C35.90541,9.79585,42.37715,3.25642,52.7789.57232,53.26748.44625,53.9175.60831,54.23225,0h7.30941c.14621.42276.53006.28876.82715.34764A22.68007,22.68007,0,0,1,70.88,3.57962Z"/><path class="cls-3" d="M35.3032,34.2835q2.84735-.05587,5.69473-.11168,7.11645.05762,14.23279.11507c.44348,2.35663.837,4.724,1.34153,7.06749.87043,4.0426,1.38438,8.16161,2.59069,12.13211.01646,1.51341.11209,3.01915,1.394,4.07789a3.91664,3.91664,0,0,0,4.18675.66017,3.86361,3.86361,0,0,0,2.43707-3.95379c.019-5.96224.006-11.92457.01021-17.88686.00051-.71691.03181-1.43381.04871-2.15081q3.99147-.02605,7.9832-.0519l7.96537-.00224,14.23763.10774c.44222,2.35682.83078,4.72527,1.33857,7.06787.87607,4.04153,1.38477,8.16183,2.59345,12.13182.01713,1.51284.10872,3.01905,1.39255,4.078a3.92013,3.92013,0,0,0,4.187.66044,3.86279,3.86279,0,0,0,2.43744-3.95356c.01968-6.01744.00659-12.035.0108-18.05248.00046-.66168.03168-1.32334.04878-1.98491,7.47234.00077,14.94471.02448,22.41662-.02294,1.11115-.007,1.49284.22753,1.54057,1.42475q.93237,23.39013,1.97128,46.776,1.33773,31.26644,2.6756,62.53286c.34341,8.01707.67568,16.03469,1.05927,24.04986.04138.86443-.11223,1.26041-1.02481,1.13619a4.96221,4.96221,0,0,0-.6636-.00422q-53.30184,0-106.60368-.00219c-.49693,0-.99387-.03356-1.49085-.05145a10.18776,10.18776,0,0,0,.31157-1.93246c-.13842-4.884.59516-9.74595.34881-14.6308.69732-2.41262.16675-4.883.34407-7.32006a4.33788,4.33788,0,0,0,.30627-1.10265c.028-5.34845.42108-10.68094.63659-16.0206.19773-4.89894.455-9.79416.65636-14.69106.22182-5.395.45531-10.78969.67149-16.18467.20073-5.00928.45313-10.01528.65977-15.02289q.33732-8.17516.67167-16.35062c.19675-4.84363.47043-9.684.64609-14.52514C34.78551,46.28766,35.008,40.28434,35.3032,34.2835ZM82.16464,86.88525a13.24879,13.24879,0,1,0-13.37046,13.16389A13.25793,13.25793,0,0,0,82.16464,86.88525Zm4.26882,30.65047a13.248,13.248,0,1,0,13.32105-13.21814A13.28674,13.28674,0,0,0,86.43346,117.53572Zm15.38825-29.61891a2.86486,2.86486,0,0,0-1.7561-3.02453,3.00953,3.00953,0,0,0-3.4795.79782q-14.37188,14.397-28.75422,28.78369a2.99532,2.99532,0,0,0-.19554,4.42078,3.02623,3.02623,0,0,0,4.42773-.27829q14.34273-14.30873,28.659-28.644A3.02751,3.02751,0,0,0,101.82171,87.91681Z"/><path class="cls-4" d="M35.3032,34.2835c-.29516,6.00084-.51769,12.00416-.73555,18.00825-.17566,4.84112-.44934,9.68151-.64609,14.52514q-.33207,8.17539-.67167,16.35062c-.20664,5.00761-.459,10.01361-.65977,15.02289-.21618,5.395-.44967,10.78965-.67149,16.18467-.20134,4.8969-.45863,9.79212-.65636,14.69106-.21551,5.33966-.60859,10.67215-.63659,16.0206a4.337,4.337,0,0,1-.30637,1.10281,1.65142,1.65142,0,0,0-1.00766.50259q-2.74784,2.229-5.52029,4.42761C18,155.73143,12.2347,160.37655,6.39794,164.93006,4.2853,166.57823,2.3791,168.50581,0,169.80568c.28227-7.62654.53889-15.25413.85343-22.87935.37391-9.0643.80485-18.12622,1.19814-27.18974q1.12948-26.02992,2.24418-52.0605c.45648-10.61128.93335-21.22181,1.33394-31.8352.04787-1.26847.36012-1.64526,1.672-1.638,8.57417.04725,17.14886-.00128,25.72357-.01869Q34.16443,34.23364,35.3032,34.2835Z"/><path class="cls-5" d="M0,169.80568c2.3791-1.29987,4.2853-3.22745,6.39794-4.87562C12.2347,160.37655,18,155.73143,23.79136,151.11974q2.7679-2.20412,5.52029-4.42761a1.65142,1.65142,0,0,1,1.00767-.50259c-.17723,2.43691.35334,4.90728-.34394,7.31994-.49387-.004-.77966.34666-1.126.624-4.21064,3.37213-8.43867,6.72255-12.64555,10.09934-2.40024,1.92664-4.77,3.89121-7.15355,5.83871-2.73718.01791-5.47436.03912-8.21157.04916C.53113,170.12186.16366,170.21647,0,169.80568Z"/><path class="cls-4" d="M9.05029,170.07156c2.3835-1.9475,4.75331-3.91207,7.15355-5.83871,4.20688-3.37679,8.43491-6.72721,12.64555-10.09934.34633-.27737.63212-.628,1.126-.624.24631,4.88481-.48727,9.74673-.34885,14.63076a10.18776,10.18776,0,0,1-.31157,1.93246Q19.18267,170.07212,9.05029,170.07156Z"/><path class="cls-2" d="M77.80391,9.64244a23.20524,23.20524,0,0,1,5.32073,13.94672c.15973,3.5237.05191,7.05953.0637,10.58986q-3.98275.001-7.96555.00232c.00122-2.4878-.0868-4.97972.02326-7.46286a18.543,18.543,0,0,0-3.74459-12.41259A8.92693,8.92693,0,0,1,77.80391,9.64244Z"/><path class="cls-6" d="M55.23072,34.28689q1.96856-.03339,3.937-.06669-.00239,9.63333-.00459,19.26636c-1.20645-3.97057-1.7204-8.08958-2.59083-12.13218C56.06768,39.01091,55.6742,36.64352,55.23072,34.28689Z"/><path class="cls-6" d="M97.42592,34.28669q1.96842-.0333,3.9367-.0665-.00237,9.63327-.00454,19.26625c-1.20882-3.97005-1.71752-8.09035-2.59359-12.13188C98.2567,39.012,97.86814,36.64351,97.42592,34.28669Z"/><path class="cls-7" d="M82.16464,86.88525a13.24879,13.24879,0,0,1-26.49726-.11989,13.24878,13.24878,0,1,1,26.49726.11989ZM68.94487,94.07988a7.18749,7.18749,0,0,0,7.24838-7.2593,7.30187,7.30187,0,0,0-7.26235-7.29731,7.40175,7.40175,0,0,0-7.29872,7.308A7.30633,7.30633,0,0,0,68.94487,94.07988Z"/><path class="cls-7" d="M86.43346,117.53572a13.248,13.248,0,0,1,26.49589.02227,13.248,13.248,0,1,1-26.49589-.02227Zm5.9702-.04069a7.30171,7.30171,0,0,0,7.20293,7.35969,7.413,7.413,0,0,0,7.35672-7.25671,7.31708,7.31708,0,0,0-7.25617-7.30741A7.18431,7.18431,0,0,0,92.40366,117.495Z"/><path class="cls-7" d="M101.82171,87.91681a3.02751,3.02751,0,0,1-1.09863,2.05546q-14.32978,14.32175-28.659,28.644a3.02623,3.02623,0,0,1-4.42773.27829,2.99532,2.99532,0,0,1,.19554-4.42078Q82.19656,100.06953,96.58611,85.6901a3.00953,3.00953,0,0,1,3.4795-.79782A2.86486,2.86486,0,0,1,101.82171,87.91681Z"/><path class="cls-8" d="M68.94487,94.07988a7.30633,7.30633,0,0,1-7.31269-7.24859,7.40175,7.40175,0,0,1,7.29872-7.308,7.30187,7.30187,0,0,1,7.26235,7.29731A7.18749,7.18749,0,0,1,68.94487,94.07988Z"/><path class="cls-8" d="M92.40366,117.495a7.18431,7.18431,0,0,1,7.30348-7.20443,7.31708,7.31708,0,0,1,7.25617,7.30741,7.413,7.413,0,0,1-7.35672,7.25671A7.30171,7.30171,0,0,1,92.40366,117.495Z"/></g></svg>