<svg xmlns="http://www.w3.org/2000/svg" viewBox="0 0 145.53238 145.06661"><defs><style>.cls-1{fill:#ed732a;}.cls-2{fill:#ff3724;}.cls-3{fill:#0e1f81;}.cls-4{fill:#2e52bc;}.cls-5{fill:#e53911;}.cls-6{fill:none;}</style></defs><g id="Layer_2" data-name="Layer 2"><path class="cls-1" d="M62.48037,52.004a3.67419,3.67419,0,0,1-3.67156,3.67156H54.09359v4.71523a3.66986,3.66986,0,1,1-7.33971,0V55.6756H42.03523a3.66985,3.66985,0,0,1,0-7.3397h4.71865V43.61725a3.66986,3.66986,0,0,1,7.33971,0V48.3359h4.71522A3.66909,3.66909,0,0,1,62.48037,52.004Z"/><path class="cls-1" d="M81.96177,12.81988a3.67417,3.67417,0,0,1-3.67156,3.67156H73.575v4.71523a3.66986,3.66986,0,1,1-7.33971,0V16.49144H61.51663a3.66985,3.66985,0,0,1,0-7.3397h4.71865V4.43309a3.66986,3.66986,0,0,1,7.33971,0V9.15174h4.71522A3.66909,3.66909,0,0,1,81.96177,12.81988Z"/><path class="cls-2" d="M144.68957,94.41844A3.67419,3.67419,0,0,1,141.018,98.09h-4.71522v4.71523a3.66986,3.66986,0,1,1-7.33971,0V98.09h-4.71865a3.66985,3.66985,0,0,1,0-7.3397h4.71865V86.03165a3.66986,3.66986,0,0,1,7.33971,0V90.7503H141.018A3.66909,3.66909,0,0,1,144.68957,94.41844Z"/><circle class="cls-2" cx="98.91019" cy="90.48874" r="4.63033"/><circle class="cls-1" cx="40.55062" cy="24.87823" r="4.63033"/><circle class="cls-2" cx="132.63293" cy="68.69272" r="4.63033"/><path class="cls-3" d="M65.782,91.70566l-50.79292,50.7895a8.78137,8.78137,0,0,1-12.41764,0l60.02146-60.131,3.1891,3.18568A4.35765,4.35765,0,0,1,65.782,91.70566Z"/><path class="cls-4" d="M62.59293,82.36418l-60.02146,60.131a8.77723,8.77723,0,0,1,0-12.41424L53.36439,79.288a4.34731,4.34731,0,0,1,6.15236,0Z"/><polygon class="cls-2" points="101.495 43.975 82.138 63.264 62.798 82.57 59.76 79.531 98.405 40.885 101.495 43.975"/><polygon class="cls-5" points="104.517 46.997 65.871 85.642 62.798 82.57 82.138 63.264 101.495 43.975 104.517 46.997"/><path class="cls-1" d="M138.83363,6.58543,100.83818,44.62879,83.565,39.18132a4.14524,4.14524,0,0,1-1.13261-7.34657L97.00921,21.61389l-.15741-17.694A3.81675,3.81675,0,0,1,102.76464.635L117.64939,11.4683l17.14654-5.85466A3.981,3.981,0,0,1,138.83363,6.58543Z"/><path class="cls-2" d="M141.08859,48.70413l-17.45451-.19505L113.03684,62.98664a4.08428,4.08428,0,0,1-7.22-1.27975l-4.93763-17.06442-.04106-.01368L138.83363,6.58543a3.984,3.984,0,0,1,1.03681,4.024l-5.81018,16.88991,10.60067,14.238A4.36238,4.36238,0,0,1,141.08859,48.70413Z"/><line class="cls-6" x1="139.28873" y1="6.13034" x2="138.83364" y2="6.58543"/><line class="cls-6" x1="100.83818" y1="44.62879" x2="100.46863" y2="44.99835"/><line class="cls-6" x1="139.98974" y1="4.76417" x2="139.52582" y2="5.22809"/><line class="cls-6" x1="100.79357" y1="44.00916" x2="100.41686" y2="44.38588"/><path class="cls-1" d="M62.48037,52.004a3.67419,3.67419,0,0,1-3.67156,3.67156H54.09359v4.71523a3.66986,3.66986,0,1,1-7.33971,0V55.6756H42.03523a3.66985,3.66985,0,0,1,0-7.3397h4.71865V43.61725a3.66986,3.66986,0,0,1,7.33971,0V48.3359h4.71522A3.66909,3.66909,0,0,1,62.48037,52.004Z"/><path class="cls-1" d="M81.96177,12.81988a3.67417,3.67417,0,0,1-3.67156,3.67156H73.575v4.71523a3.66986,3.66986,0,1,1-7.33971,0V16.49144H61.51663a3.66985,3.66985,0,0,1,0-7.3397h4.71865V4.43309a3.66986,3.66986,0,0,1,7.33971,0V9.15174h4.71522A3.66909,3.66909,0,0,1,81.96177,12.81988Z"/><path class="cls-2" d="M144.68957,94.41844A3.67419,3.67419,0,0,1,141.018,98.09h-4.71522v4.71523a3.66986,3.66986,0,1,1-7.33971,0V98.09h-4.71865a3.66985,3.66985,0,0,1,0-7.3397h4.71865V86.03165a3.66986,3.66986,0,0,1,7.33971,0V90.7503H141.018A3.66909,3.66909,0,0,1,144.68957,94.41844Z"/><circle class="cls-2" cx="98.91019" cy="90.48874" r="4.63033"/><circle class="cls-1" cx="40.55062" cy="24.87823" r="4.63033"/><circle class="cls-2" cx="132.63293" cy="68.69272" r="4.63033"/><path class="cls-3" d="M65.782,91.70566l-50.79292,50.7895a8.78137,8.78137,0,0,1-12.41764,0l60.02146-60.131,3.1891,3.18568A4.35765,4.35765,0,0,1,65.782,91.70566Z"/><path class="cls-4" d="M62.59293,82.36418l-60.02146,60.131a8.77723,8.77723,0,0,1,0-12.41424L53.36439,79.288a4.34731,4.34731,0,0,1,6.15236,0Z"/><polygon class="cls-2" points="101.495 43.975 82.138 63.264 62.798 82.57 59.76 79.531 98.405 40.885 101.495 43.975"/><polygon class="cls-5" points="104.517 46.997 65.871 85.642 62.798 82.57 82.138 63.264 101.495 43.975 104.517 46.997"/><path class="cls-1" d="M138.83363,6.58543,100.83818,44.62879,83.565,39.18132a4.14524,4.14524,0,0,1-1.13261-7.34657L97.00921,21.61389l-.15741-17.694A3.81675,3.81675,0,0,1,102.76464.635L117.64939,11.4683l17.14654-5.85466A3.981,3.981,0,0,1,138.83363,6.58543Z"/><path class="cls-2" d="M141.08859,48.70413l-17.45451-.19505L113.03684,62.98664a4.08428,4.08428,0,0,1-7.22-1.27975l-4.93763-17.06442-.04106-.01368L138.83363,6.58543a3.984,3.984,0,0,1,1.03681,4.024l-5.81018,16.88991,10.60067,14.238A4.36238,4.36238,0,0,1,141.08859,48.70413Z"/><line class="cls-6" x1="139.28873" y1="6.13034" x2="138.83364" y2="6.58543"/><line class="cls-6" x1="100.83818" y1="44.62879" x2="100.46863" y2="44.99835"/><line class="cls-6" x1="139.98974" y1="4.76417" x2="139.52582" y2="5.22809"/><line class="cls-6" x1="100.79357" y1="44.00916" x2="100.41686" y2="44.38588"/></g></svg>