<svg width="51" height="51" viewBox="0 0 51 51" fill="none" xmlns="http://www.w3.org/2000/svg">
<circle cx="25.5" cy="25.5" r="24" fill="#00BFA4" stroke="white" stroke-width="1"/>
<path d="M26.7345 22.8242C22.3871 21.6943 20.9891 20.5261 20.9891 18.7067C20.9891 16.6192 22.9234 15.1637 26.16 15.1637C28.8795 15.1637 30.2392 16.1978 30.7372 17.8449C30.967 18.6109 31.599 19.1855 32.4033 19.1855H32.9779C34.2419 19.1855 35.142 17.9406 34.7015 16.7532C33.8972 14.4934 32.0203 12.6165 29.0327 11.8888V10.5673C29.0327 8.97773 27.7495 7.69458 26.16 7.69458C24.5704 7.69458 23.2872 8.97773 23.2872 10.5673V11.8313C19.5719 12.6357 16.5842 15.0487 16.5842 18.745C16.5842 23.169 20.2422 25.3714 25.5854 26.6545C30.3733 27.8036 31.3309 29.489 31.3309 31.27C31.3309 32.5915 30.3924 34.6982 26.16 34.6982C23 34.6982 21.3721 33.5682 20.7401 31.9595C20.4528 31.2126 19.8017 30.6763 19.0165 30.6763H18.4802C17.1971 30.6763 16.297 31.9786 16.7757 33.166C17.8674 35.8281 20.4145 37.3985 23.2872 38.0114V39.2945C23.2872 40.8841 24.5704 42.1672 26.16 42.1672C27.7495 42.1672 29.0327 40.8841 29.0327 39.2945V38.0497C32.7672 37.3411 35.7357 35.1769 35.7357 31.2509C35.7357 25.8119 31.0819 23.9542 26.7345 22.8242Z" fill="white"/>
</svg>
