<svg width="19" height="18" viewBox="0 0 19 18" fill="none" xmlns="http://www.w3.org/2000/svg">
<path d="M7.47 18C8.23723 18 8.83398 17.7148 9.23892 17.1127L18.5844 3.07396C18.8722 2.64085 19 2.21832 19 1.83803C19 0.781697 18.1795 0 17.0818 0C16.3466 0 15.8671 0.264089 15.4195 0.971833L7.42736 13.4261L3.39932 8.57749C2.99439 8.10214 2.53617 7.88031 1.90746 7.88031C0.809871 7.88031 0 8.662 0 9.7289C0 10.2043 0.13853 10.6162 0.554122 11.081L5.75435 17.2183C6.22322 17.7571 6.76668 18 7.47 18Z" fill="#11BFA5"/>
</svg>
