<svg width="29" height="23" viewBox="0 0 29 23" fill="none" xmlns="http://www.w3.org/2000/svg">
<path d="M4.23291 23H24.78C27.5203 23 29 21.5426 29 18.8321V4.18066C29 1.47026 27.5203 0 24.78 0H4.23291C1.49246 0 0 1.47026 0 4.18066V18.8321C0 21.5426 1.49246 23 4.23291 23ZM4.52883 20.0594C3.51241 20.0594 2.97205 19.561 2.97205 18.487V4.51307C2.97205 3.45192 3.51241 2.95331 4.52883 2.95331H24.484C25.4876 2.95331 26.0408 3.45192 26.0408 4.51307V18.487C26.0408 19.561 25.4876 20.0594 24.484 20.0594H4.52883ZM5.9055 9.81879C4.70896 10.5347 5.72537 12.3374 7.02483 11.532L10.37 9.43525C11.1934 8.92385 11.1677 7.70929 10.37 7.22347L7.02483 5.12675C5.73824 4.32129 4.70896 6.11118 5.89262 6.82713L8.38863 8.33576L5.9055 9.81879ZM10.9876 11.3658C10.9876 11.9027 11.425 12.3502 11.9782 12.3502H16.4428C16.996 12.3502 17.4334 11.9027 17.4334 11.3658C17.4334 10.816 16.996 10.3813 16.4428 10.3813H11.9782C11.425 10.3813 10.9876 10.816 10.9876 11.3658Z" fill="#D2EFFF"/>
</svg>
