<svg width="25" height="25" viewBox="0 0 25 25" fill="none" xmlns="http://www.w3.org/2000/svg">
<path d="M12.2334 24.833C18.9106 24.833 24.4038 19.3398 24.4038 12.6626C24.4038 5.98535 18.9106 0.504395 12.2334 0.504395C5.55615 0.504395 0.0629883 5.98535 0.0629883 12.6626C0.0629883 19.3398 5.55615 24.833 12.2334 24.833ZM12.2334 21.8667C7.14307 21.8667 3.0415 17.7651 3.0415 12.6626C3.0415 7.57227 7.13086 3.4707 12.2334 3.4707C17.3237 3.4707 21.4253 7.57227 21.4375 12.6626C21.4375 17.7651 17.3359 21.8667 12.2334 21.8667ZM8.47363 9.24463C8.82764 9.73291 9.40137 9.85498 9.99951 9.45215C10.7075 8.95166 11.3911 8.69531 12.2456 8.69531C14.1011 8.69531 15.6392 9.8916 16.1396 11.5273H15.1875C14.5894 11.5273 14.4062 12.1255 14.7603 12.6016L16.5547 15.0063C16.8965 15.458 17.4824 15.4702 17.8242 15.0063L19.5942 12.6016C19.9604 12.1255 19.7773 11.5273 19.167 11.5273H18.2393C17.7021 8.63428 15.2729 6.62012 12.2456 6.62012C10.9272 6.62012 9.73096 7.02295 8.85205 7.69434C8.2417 8.13379 8.13184 8.78076 8.47363 9.24463ZM4.86035 12.7236C4.50635 13.1997 4.68945 13.7979 5.2876 13.7979H6.26416C6.80127 16.6787 9.21826 18.7051 12.2578 18.7051C13.564 18.7051 14.7603 18.3022 15.6392 17.6309C16.2617 17.1914 16.3716 16.5444 16.0298 16.0684C15.6636 15.5923 15.0898 15.4702 14.4917 15.8608C13.7959 16.3735 13.1001 16.6177 12.2578 16.6177C10.3901 16.6177 8.86426 15.4336 8.36377 13.7979H9.26709C9.86523 13.7979 10.0605 13.1997 9.69434 12.7236L7.8999 10.3188C7.57031 9.86719 6.98438 9.84277 6.63037 10.3188L4.86035 12.7236Z" fill="white"/>
</svg>
