<svg xmlns="http://www.w3.org/2000/svg" viewBox="0 0 320.32449 320.46985">
  <g id="Layer_2" data-name="Layer 2">
    <g>
      <path d="M.01148,178.127q0-43.51368.00489-87.02735C.03741,63.3614,16.519,42.75332,43.55009,36.65229a20.68213,20.68213,0,0,1,4.452-.50735c25.666-.08148,51.33393-.3281,76.99734-.09164A17.33681,17.33681,0,0,1,140.6453,60.89588c-3.14244,6.73821-8.63574,10.38756-16.27865,10.38644q-34.2515-.005-68.503.00985c-13.13608.00841-20.09949,6.8569-20.10627,19.95509-.02991,57.85148.17209,115.7041-.1696,173.55359-.06843,11.58546,7.87365,20.09733,20.17638,20.02555,57.66722-.33653,115.33751-.1287,173.00667-.16488,13.46145-.00842,20.272-6.90776,20.2812-20.3145.01562-22.84049-.0359-45.68113.036-68.52142a17.77071,17.77071,0,0,1,14.27721-17.475,17.59258,17.59258,0,0,1,19.91858,11.37624,22.06363,22.06363,0,0,1,1.07021,7.32238c.0764,23.17369-.28406,46.3536.12862,69.52018.50472,28.33462-22.9582,54.03688-54.4199,53.89988-58.501-.25473-117.00393-.03508-175.506-.08836C23.21842,320.35236.062,297.07035.01986,265.65448Q-.03885,221.8908.01148,178.127Z"/>
      <path d="M257.65439,35.9383q-2.63725,0-5.27449,0c-18.49511-.00115-36.99144.12672-55.485-.04547-14.07843-.13109-22.93335-12.71678-17.55349-24.88994,3.30009-7.46722,9.43228-10.80932,17.57071-10.799,32.49137.041,64.99471.545,97.46972-.18586,18.88-.42488,26.37429,6.63876,25.92351,26.12539-.75142,32.48285-.21862,64.99574-.19633,97.496.00512,7.48146-2.96922,13.28284-9.63351,16.806-6.29271,3.32666-12.59114,2.7896-18.40484-1.21475-5.70571-3.92994-7.70956-9.76259-7.70389-16.47441q.02317-27.25015.00254-54.50038c-.00009-1.81493,0-3.62986,0-6.78529-2.16206,2.02886-3.55357,3.26392-4.86684,4.57725q-70.15343,70.15607-140.2753,140.34361c-3.87679,3.88254-8.00238,6.95911-13.79149,7.11648-7.81316.2124-13.68427-3.06482-16.92249-10.0743-3.10568-6.7225-2.37681-13.42755,2.59316-19.13961,3.38315-3.88831,7.19284-7.40769,10.84371-11.06013Q188.20558,106.94994,254.491,40.69606a38.66248,38.66248,0,0,1,3.96665-3.07349Q258.056,36.78043,257.65439,35.9383Z"/>
    </g>
  </g>
</svg>
