<svg width="17" height="17" viewBox="0 0 17 17" fill="none" xmlns="http://www.w3.org/2000/svg">
<path d="M0.00147704 9.44913C0.00147704 7.91028 0.00156354 6.37143 0.00173656 4.83258C0.00285317 3.36114 0.877551 2.26795 2.31212 1.9443C2.38967 1.92681 2.4689 1.91778 2.5484 1.91739C3.91052 1.91307 5.27275 1.89999 6.63474 1.91253C6.79041 1.91237 6.94359 1.95169 7.07992 2.02682C7.21625 2.10194 7.33128 2.21042 7.41424 2.34209C7.49721 2.47376 7.54539 2.62432 7.55428 2.77967C7.56317 2.93502 7.53248 3.09009 7.46508 3.23036C7.29831 3.5878 7.00677 3.78139 6.60115 3.78133C5.38931 3.78115 4.17746 3.78132 2.96562 3.78185C2.26847 3.7823 1.89891 4.14559 1.89855 4.84041C1.89697 7.90926 1.90769 10.9782 1.88955 14.0469C1.88592 14.6615 2.30742 15.113 2.96034 15.1092C6.02081 15.0914 9.08144 15.1024 12.142 15.1005C12.8564 15.1 13.2179 14.734 13.2184 14.0229C13.2192 12.8112 13.2165 11.5996 13.2203 10.388C13.2196 10.1697 13.2948 9.95791 13.433 9.78885C13.5712 9.61979 13.7638 9.50391 13.978 9.46099C14.1973 9.41856 14.4245 9.45612 14.6185 9.56684C14.8124 9.67757 14.9602 9.85412 15.0351 10.0645C15.0758 10.1898 15.095 10.3211 15.0919 10.4529C15.0959 11.6822 15.0768 12.9118 15.0987 14.1407C15.1255 15.6438 13.8803 17.0072 12.2106 17C9.10585 16.9865 6.00103 16.9981 2.89626 16.9953C1.2331 16.9938 0.00415819 15.7587 0.00192177 14.0922C-0.000155432 12.5445 -0.000303678 10.9968 0.00147704 9.44913Z" fill="#D6A151" fill-opacity="0.83"/>
<path d="M13.6747 1.90642C13.5814 1.90642 13.4881 1.90642 13.3948 1.90642C12.4132 1.90636 11.4316 1.91314 10.4501 1.90401C9.70298 1.89705 9.23304 1.22942 9.51856 0.583668C9.6937 0.187554 10.0191 0.0102651 10.4511 0.0108125C12.1754 0.0129875 13.9004 0.0397232 15.6239 0.000953197C16.6259 -0.0215855 17.0236 0.35312 16.9997 1.38683C16.9598 3.10995 16.9881 4.83467 16.9893 6.55871C16.9895 6.95558 16.8317 7.26333 16.478 7.45022C16.144 7.62669 15.8098 7.5982 15.5012 7.38578C15.1984 7.17731 15.0921 6.86791 15.0924 6.51186C15.0932 5.54817 15.0932 4.58447 15.0925 3.62077C15.0925 3.5245 15.0925 3.42822 15.0925 3.26083C14.9778 3.36846 14.9039 3.43398 14.8342 3.50364C12.3521 5.9847 9.87062 8.4663 7.38965 10.9485C7.1839 11.1544 6.96495 11.3176 6.65772 11.326C6.24306 11.3372 5.93148 11.1634 5.75962 10.7916C5.5948 10.435 5.63348 10.0793 5.89724 9.77626C6.07679 9.57 6.27897 9.38331 6.47273 9.18956C8.8169 6.84544 11.1616 4.50186 13.5068 2.15881C13.5734 2.09996 13.6437 2.0455 13.7174 1.99577C13.7031 1.96598 13.6889 1.9362 13.6747 1.90642Z" fill="#D6A151" fill-opacity="0.83"/>
</svg>
