<svg width="405" height="265" viewBox="0 0 405 265" fill="none" xmlns="http://www.w3.org/2000/svg">
<g filter="url(#filter0_d_115_258)">
<path d="M382.924 0H195.958C191.195 -4.27699e-06 186.628 1.89197 183.26 5.25972C179.892 8.62747 178 13.1951 178 17.9578V106.427C178 108.786 178.464 111.121 179.367 113.299C180.269 115.478 181.592 117.458 183.26 119.125C184.927 120.793 186.907 122.116 189.086 123.018C191.264 123.921 193.6 124.385 195.958 124.385H314.234L350.997 166.648C351.599 167.341 352.398 167.833 353.288 168.058C354.177 168.284 355.115 168.233 355.974 167.911C356.834 167.59 357.575 167.013 358.098 166.259C358.621 165.505 358.901 164.609 358.901 163.691V124.385H382.924C387.687 124.385 392.254 122.493 395.622 119.125C398.99 115.758 400.882 111.19 400.882 106.427V17.9578C400.882 13.1951 398.99 8.62747 395.622 5.25973C392.254 1.89198 387.687 0 382.924 0Z" fill="url(#paint0_linear_115_258)"/>
<path d="M210.917 23.7561H367.964C368.068 23.7561 368.167 23.7971 368.24 23.8701C368.313 23.9432 368.354 24.0422 368.354 24.1455V35.3302C368.354 35.4335 368.313 35.5325 368.24 35.6055C368.167 35.6785 368.068 35.7195 367.964 35.7195H210.917C210.866 35.7195 210.816 35.7095 210.768 35.6899C210.721 35.6703 210.678 35.6417 210.642 35.6055C210.606 35.5694 210.577 35.5264 210.558 35.4792C210.538 35.432 210.528 35.3813 210.528 35.3302V24.1455C210.528 24.0943 210.538 24.0437 210.558 23.9965C210.577 23.9492 210.606 23.9063 210.642 23.8701C210.678 23.834 210.721 23.8053 210.768 23.7857C210.816 23.7662 210.866 23.7561 210.917 23.7561Z" fill="white"/>
<path d="M210.917 52.2842H367.964C368.068 52.2842 368.167 52.3252 368.24 52.3982C368.313 52.4712 368.354 52.5703 368.354 52.6735V63.8583C368.354 63.9615 368.313 64.0606 368.24 64.1336C368.167 64.2066 368.068 64.2476 367.964 64.2476H210.917C210.866 64.2476 210.816 64.2376 210.768 64.218C210.721 64.1984 210.678 64.1697 210.642 64.1336C210.606 64.0974 210.577 64.0545 210.558 64.0073C210.538 63.96 210.528 63.9094 210.528 63.8583V52.6735C210.528 52.6224 210.538 52.5718 210.558 52.5245C210.577 52.4773 210.606 52.4344 210.642 52.3982C210.678 52.3621 210.721 52.3334 210.768 52.3138C210.816 52.2943 210.866 52.2842 210.917 52.2842Z" fill="white"/>
<path d="M210.917 80.8125H306.767C306.87 80.8125 306.969 80.8535 307.042 80.9265C307.115 80.9996 307.156 81.0986 307.156 81.2019V92.3866C307.156 92.4899 307.115 92.5889 307.042 92.6619C306.969 92.735 306.87 92.776 306.767 92.776H210.917C210.866 92.776 210.816 92.7659 210.768 92.7463C210.721 92.7268 210.678 92.6981 210.642 92.662C210.606 92.6258 210.577 92.5829 210.558 92.5356C210.538 92.4884 210.528 92.4378 210.528 92.3866V81.2019C210.528 81.0986 210.569 80.9996 210.642 80.9265C210.715 80.8535 210.814 80.8125 210.917 80.8125Z" fill="white"/>
<path d="M27.8949 82H202.987C206.125 82 209.232 82.6181 212.131 83.8189C215.03 85.0197 217.664 86.7798 219.883 88.9987C222.102 91.2175 223.862 93.8517 225.063 96.7507C226.264 99.6498 226.882 102.757 226.882 105.895V182.49C226.882 185.628 226.264 188.735 225.063 191.634C223.862 194.533 222.102 197.168 219.883 199.386C217.664 201.605 215.03 203.365 212.131 204.566C209.232 205.767 206.125 206.385 202.987 206.385H90.6476L47.486 256.005C47.3713 256.137 47.2191 256.23 47.0496 256.273C46.8802 256.316 46.7017 256.306 46.538 256.245C46.3743 256.184 46.2331 256.074 46.1335 255.931C46.0339 255.787 45.9805 255.616 45.9805 255.442V206.385H27.8949C24.757 206.385 21.6498 205.767 18.7507 204.566C15.8517 203.365 13.2175 201.605 10.9986 199.386C8.77979 197.168 7.01971 194.533 5.81888 191.634C4.61805 188.735 3.99999 185.628 4 182.49L4 105.895C3.99999 102.757 4.61805 99.6498 5.81888 96.7507C7.01971 93.8517 8.7798 91.2175 10.9986 88.9987C13.2175 86.7798 15.8517 85.0197 18.7507 83.8189C21.6498 82.6181 24.757 82 27.8949 82Z" fill="url(#paint1_linear_115_258)"/>
<path d="M76.1482 147.435C81.9632 147.435 86.6771 142.721 86.6771 136.906C86.6771 131.091 81.9632 126.377 76.1482 126.377C70.3333 126.377 65.6194 131.091 65.6194 136.906C65.6194 142.721 70.3333 147.435 76.1482 147.435Z" fill="white"/>
<path d="M115.441 147.435C121.256 147.435 125.97 142.721 125.97 136.906C125.97 131.091 121.256 126.377 115.441 126.377C109.626 126.377 104.912 131.091 104.912 136.906C104.912 142.721 109.626 147.435 115.441 147.435Z" fill="white"/>
<path d="M154.733 147.435C160.548 147.435 165.262 142.721 165.262 136.906C165.262 131.091 160.548 126.377 154.733 126.377C148.918 126.377 144.204 131.091 144.204 136.906C144.204 142.721 148.918 147.435 154.733 147.435Z" fill="white"/>
</g>
<defs>
<filter id="filter0_d_115_258" x="0" y="0" width="404.882" height="264.3" filterUnits="userSpaceOnUse" color-interpolation-filters="sRGB">
<feFlood flood-opacity="0" result="BackgroundImageFix"/>
<feColorMatrix in="SourceAlpha" type="matrix" values="0 0 0 0 0 0 0 0 0 0 0 0 0 0 0 0 0 0 127 0" result="hardAlpha"/>
<feOffset dy="4"/>
<feGaussianBlur stdDeviation="2"/>
<feComposite in2="hardAlpha" operator="out"/>
<feColorMatrix type="matrix" values="0 0 0 0 0 0 0 0 0 0 0 0 0 0 0 0 0 0 0.25 0"/>
<feBlend mode="normal" in2="BackgroundImageFix" result="effect1_dropShadow_115_258"/>
<feBlend mode="normal" in="SourceGraphic" in2="effect1_dropShadow_115_258" result="shape"/>
</filter>
<linearGradient id="paint0_linear_115_258" x1="178" y1="84.1028" x2="400.882" y2="84.1028" gradientUnits="userSpaceOnUse">
<stop stop-color="#FFCC65"/>
<stop offset="1" stop-color="#FF9947"/>
</linearGradient>
<linearGradient id="paint1_linear_115_258" x1="4" y1="169.151" x2="226.882" y2="169.151" gradientUnits="userSpaceOnUse">
<stop stop-color="#31DBD5"/>
<stop offset="1" stop-color="#78F3ED"/>
</linearGradient>
</defs>
</svg>
