<svg width="452" height="297" viewBox="0 0 452 297" fill="none" xmlns="http://www.w3.org/2000/svg">
<g filter="url(#filter0_d_116_279)">
<path d="M448 16.6513V271.825C447.999 276.241 446.244 280.476 443.121 283.598C439.997 286.721 435.761 288.475 431.344 288.476H24.6095C20.1923 288.475 15.9562 286.721 12.8327 283.598C9.7092 280.476 7.95407 276.241 7.95325 271.825V16.6513C7.96048 12.2373 9.71767 8.00607 12.8398 4.8849C15.9619 1.76373 20.1942 0.00712387 24.6095 0H431.344C435.759 0.00714023 439.992 1.76376 443.114 4.88493C446.236 8.0061 447.993 12.2373 448 16.6513Z" fill="url(#paint0_linear_116_279)"/>
</g>
<path d="M448 16.6513V40.4773H7.95325V16.6513C7.96048 12.2373 9.71767 8.00607 12.8398 4.8849C15.9619 1.76373 20.1942 0.00712387 24.6095 0H431.344C435.759 0.00714023 439.992 1.76376 443.114 4.88493C446.236 8.00611 447.993 12.2373 448 16.6513Z" fill="url(#paint1_linear_116_279)"/>
<path d="M433.624 47.5278H236.239C235.516 47.5278 234.929 48.1141 234.929 48.8372V274.4C234.929 275.123 235.516 275.71 236.239 275.71H433.624C434.347 275.71 434.934 275.123 434.934 274.4V48.8372C434.934 48.1141 434.347 47.5278 433.624 47.5278Z" fill="url(#paint2_linear_116_279)"/>
<path d="M37.9477 24.7952C40.6117 24.7952 42.7713 22.6362 42.7713 19.9729C42.7713 17.3096 40.6117 15.1506 37.9477 15.1506C35.2837 15.1506 33.1241 17.3096 33.1241 19.9729C33.1241 22.6362 35.2837 24.7952 37.9477 24.7952Z" fill="#FDFFFC"/>
<path d="M56.5842 24.7952C59.2482 24.7952 61.4078 22.6362 61.4078 19.9729C61.4078 17.3096 59.2482 15.1506 56.5842 15.1506C53.9202 15.1506 51.7606 17.3096 51.7606 19.9729C51.7606 22.6362 53.9202 24.7952 56.5842 24.7952Z" fill="#FDFFFC"/>
<path d="M75.2208 24.7952C77.8848 24.7952 80.0444 22.6362 80.0444 19.9729C80.0444 17.3096 77.8848 15.1506 75.2208 15.1506C72.5568 15.1506 70.3972 17.3096 70.3972 19.9729C70.3972 22.6362 72.5568 24.7952 75.2208 24.7952Z" fill="#FDFFFC"/>
<path d="M108.83 147.732C109.659 143.2 109.669 138.556 108.861 134.02L99.3925 133.999C98.6933 130.896 97.4712 127.935 95.7785 125.242L102.498 118.605C99.8799 114.797 96.5925 111.496 92.7952 108.862L86.076 115.55C83.408 113.847 80.4683 112.611 77.3838 111.898L77.4048 102.433C72.8714 101.604 68.2262 101.594 63.6892 102.402L63.6681 111.868C60.5806 112.567 57.6354 113.789 54.96 115.481L48.2703 108.764C44.4614 111.381 41.1594 114.667 38.525 118.463L45.2145 125.13C43.5098 127.815 42.2744 130.771 41.5613 133.871L32.0935 133.85C31.2645 138.382 31.2542 143.026 32.063 147.562L41.5308 147.583C42.2304 150.669 43.4529 153.614 45.1452 156.289L38.4259 162.976C41.0388 166.771 44.3069 170.07 48.077 172.719L54.7963 166.031C57.4824 167.735 60.439 168.97 63.5395 169.683L63.5184 179.148C68.0518 179.977 72.6971 179.988 77.2341 179.179L77.2551 169.714C80.3589 169.015 83.321 167.793 86.0148 166.1L92.7042 172.818C96.4861 170.186 99.7688 166.901 102.399 163.118L95.7091 156.401C97.4134 153.733 98.6488 150.794 99.3619 147.711L108.83 147.732ZM70.4237 157.884C67.0421 157.876 63.7387 156.866 60.9312 154.982C58.1237 153.097 55.9382 150.423 54.651 147.297C53.3639 144.17 53.033 140.733 53.7001 137.419C54.3671 134.104 56.0023 131.062 58.3988 128.677C60.7952 126.292 63.8453 124.671 67.1634 124.019C70.4815 123.366 73.9185 123.713 77.0398 125.013C80.1611 126.314 82.8266 128.511 84.699 131.326C86.5715 134.141 87.5669 137.448 87.5594 140.829C87.5545 143.073 87.1073 145.295 86.2435 147.367C85.3796 149.439 84.116 151.32 82.5248 152.904C80.9336 154.488 79.046 155.743 76.9697 156.597C74.8934 157.451 72.669 157.889 70.4237 157.884Z" fill="url(#paint3_linear_116_279)"/>
<path d="M227.515 127.408C228.841 120.154 228.858 112.722 227.564 105.463L212.411 105.43C211.292 100.464 209.336 95.7244 206.627 91.4145L217.38 80.7937C213.191 74.6995 207.93 69.4164 201.853 65.2012L191.099 75.9045C186.83 73.1777 182.125 71.201 177.188 70.0598L177.222 54.9111C169.967 53.5849 162.533 53.5684 155.272 54.8624L155.238 70.0111C150.297 71.1304 145.583 73.0863 141.301 75.7941L130.595 65.0431C124.5 69.2313 119.215 74.491 114.999 80.5665L125.705 91.235C122.977 95.5329 120.999 100.263 119.858 105.224L104.706 105.191C103.379 112.444 103.363 119.876 104.657 127.135L119.809 127.169C120.929 132.109 122.885 136.821 125.594 141.102L114.84 151.805C119.022 157.878 124.252 163.157 130.286 167.396L141.039 156.694C145.338 159.421 150.07 161.398 155.032 162.539L154.998 177.687C162.253 179.014 169.688 179.03 176.949 177.735L176.982 162.587C181.95 161.468 186.69 159.513 191.001 156.805L201.707 167.555C207.76 163.342 213.013 158.086 217.222 152.032L206.516 141.281C209.244 137.013 211.221 132.309 212.362 127.374L227.515 127.408ZM166.05 143.655C160.638 143.642 155.351 142.026 150.858 139.01C146.365 135.995 142.867 131.714 140.807 126.711C138.747 121.708 138.217 116.207 139.285 110.902C140.353 105.598 142.969 100.73 146.805 96.9126C150.64 93.0954 155.521 90.5008 160.832 89.4571C166.142 88.4134 171.643 88.9673 176.638 91.0489C181.633 93.1305 185.899 96.6462 188.896 101.151C191.892 105.657 193.485 110.949 193.473 116.36C193.465 119.952 192.75 123.508 191.367 126.824C189.985 130.139 187.963 133.151 185.416 135.685C182.87 138.22 179.849 140.228 176.526 141.596C173.203 142.963 169.643 143.663 166.05 143.655Z" fill="url(#paint4_linear_116_279)"/>
<path d="M36.2942 224.593H79.4235C79.4859 224.593 79.5458 224.617 79.5899 224.662C79.6341 224.706 79.6589 224.766 79.6589 224.828V229.355C79.6589 229.385 79.6528 229.416 79.641 229.445C79.6291 229.473 79.6118 229.499 79.5899 229.521C79.5681 229.543 79.5421 229.56 79.5136 229.572C79.485 229.584 79.4544 229.59 79.4235 229.59H36.2942C36.2633 229.59 36.2327 229.584 36.2041 229.572C36.1756 229.56 36.1496 229.543 36.1278 229.521C36.1059 229.499 36.0886 229.473 36.0768 229.445C36.0649 229.416 36.0588 229.385 36.0588 229.355V224.828C36.0588 224.797 36.0649 224.766 36.0768 224.738C36.0886 224.709 36.1059 224.683 36.1278 224.662C36.1496 224.64 36.1756 224.622 36.2041 224.611C36.2327 224.599 36.2633 224.593 36.2942 224.593Z" fill="white"/>
<path d="M215.685 235.503H36.2942C36.1642 235.503 36.0588 235.608 36.0588 235.738V240.264C36.0588 240.394 36.1642 240.5 36.2942 240.5H215.685C215.815 240.5 215.92 240.394 215.92 240.264V235.738C215.92 235.608 215.815 235.503 215.685 235.503Z" fill="white"/>
<path d="M215.685 246.412H36.2942C36.1642 246.412 36.0588 246.518 36.0588 246.648V251.174C36.0588 251.304 36.1642 251.41 36.2942 251.41H215.685C215.815 251.41 215.92 251.304 215.92 251.174V246.648C215.92 246.518 215.815 246.412 215.685 246.412Z" fill="white"/>
<path d="M36.2942 257.323H215.685C215.716 257.323 215.746 257.329 215.775 257.34C215.803 257.352 215.829 257.37 215.851 257.391C215.873 257.413 215.89 257.439 215.902 257.468C215.914 257.496 215.92 257.527 215.92 257.558V262.084C215.92 262.115 215.914 262.146 215.902 262.174C215.89 262.203 215.873 262.229 215.851 262.251C215.829 262.273 215.803 262.29 215.775 262.302C215.746 262.314 215.716 262.32 215.685 262.32H36.2942C36.2318 262.32 36.1719 262.295 36.1278 262.251C36.0836 262.207 36.0588 262.147 36.0588 262.084V257.558C36.0588 257.527 36.0649 257.496 36.0768 257.468C36.0886 257.439 36.1059 257.413 36.1278 257.391C36.1496 257.37 36.1756 257.352 36.2041 257.34C36.2327 257.329 36.2633 257.323 36.2942 257.323Z" fill="white"/>
<path d="M251.123 55.2437H289.157C289.22 55.2437 289.279 55.2684 289.324 55.3126C289.368 55.3567 289.392 55.4165 289.392 55.4789V59.6746C289.392 59.7055 289.386 59.7361 289.375 59.7647C289.363 59.7932 289.345 59.8192 289.324 59.841C289.302 59.8629 289.276 59.8802 289.247 59.892C289.219 59.9038 289.188 59.9099 289.157 59.9099H251.123C251.092 59.9099 251.062 59.9038 251.033 59.892C251.004 59.8802 250.978 59.8629 250.957 59.841C250.935 59.8192 250.917 59.7932 250.906 59.7647C250.894 59.7361 250.888 59.7055 250.888 59.6746V55.4789C250.888 55.4165 250.912 55.3567 250.957 55.3126C251.001 55.2685 251.061 55.2437 251.123 55.2437Z" fill="white"/>
<path d="M251.123 65.4312H409.495C409.525 65.4312 409.556 65.4372 409.585 65.4491C409.613 65.4609 409.639 65.4782 409.661 65.5001C409.683 65.5219 409.7 65.5478 409.712 65.5764C409.724 65.6049 409.73 65.6355 409.73 65.6664V69.8621C409.73 69.9245 409.705 69.9844 409.661 70.0285C409.617 70.0726 409.557 70.0974 409.495 70.0974H251.123C251.061 70.0974 251.001 70.0726 250.957 70.0285C250.912 69.9844 250.888 69.9245 250.888 69.8621V65.6664C250.888 65.604 250.912 65.5442 250.957 65.5001C251.001 65.4559 251.061 65.4312 251.123 65.4312Z" fill="#3CB8F6"/>
<path d="M251.123 75.6187H409.495C409.525 75.6187 409.556 75.6247 409.585 75.6366C409.613 75.6484 409.639 75.6657 409.661 75.6876C409.683 75.7094 409.7 75.7354 409.712 75.7639C409.724 75.7924 409.73 75.823 409.73 75.8539V80.0497C409.73 80.1121 409.705 80.1719 409.661 80.216C409.617 80.2602 409.557 80.285 409.495 80.285H251.123C251.061 80.285 251.001 80.2602 250.957 80.216C250.912 80.1719 250.888 80.1121 250.888 80.0497V75.8539C250.888 75.7915 250.912 75.7317 250.957 75.6876C251.001 75.6434 251.061 75.6187 251.123 75.6187Z" fill="#3CB8F6"/>
<path d="M251.123 85.8059H409.495C409.525 85.8059 409.556 85.812 409.585 85.8238C409.613 85.8356 409.639 85.853 409.661 85.8748C409.683 85.8967 409.7 85.9226 409.712 85.9511C409.724 85.9797 409.73 86.0103 409.73 86.0412V90.2369C409.73 90.2993 409.705 90.3592 409.661 90.4033C409.617 90.4474 409.557 90.4722 409.495 90.4722H251.123C251.061 90.4722 251.001 90.4474 250.957 90.4033C250.912 90.3592 250.888 90.2993 250.888 90.2369V86.0412C250.888 86.0103 250.894 85.9797 250.906 85.9511C250.917 85.9226 250.935 85.8967 250.957 85.8748C250.978 85.853 251.004 85.8356 251.033 85.8238C251.062 85.812 251.092 85.8059 251.123 85.8059Z" fill="#3CB8F6"/>
<path d="M328.812 271.242C339.13 271.242 347.494 267.148 347.494 262.098C347.494 257.048 339.13 252.954 328.812 252.954C318.493 252.954 310.129 257.048 310.129 262.098C310.129 267.148 318.493 271.242 328.812 271.242Z" fill="url(#paint5_linear_116_279)"/>
<path d="M352.456 237.031L351.053 255.722C350.98 256.875 350.601 257.987 349.954 258.944C349.307 259.902 348.417 260.669 347.375 261.167C344.314 262.598 339.065 264.226 331.008 264.226C321.49 264.226 314.359 261.644 310.683 259.904C309.819 259.497 309.074 258.876 308.519 258.1C307.963 257.324 307.616 256.418 307.51 255.469L305.152 235.795H305.179L305.489 236.441C305.489 236.441 313.686 242.588 330.558 242.054C346.365 241.549 351.838 237.536 352.456 237.031Z" fill="url(#paint6_linear_116_279)"/>
<path d="M378.452 180.337H378.508L378.283 180.842C377.236 183.786 375.93 186.632 374.38 189.346L352.512 236.974C352.512 236.974 352.484 237.002 352.456 237.031C351.838 237.535 346.364 241.549 330.558 242.054C313.686 242.587 305.489 236.441 305.489 236.441L305.179 235.795L281.57 185.052H281.626C278.075 177.759 276.223 169.756 276.208 161.645C276.208 132.316 299.762 108.824 328.818 109.189C357.846 109.554 381.399 133.635 381.399 162.992C381.393 168.897 380.397 174.76 378.452 180.337Z" fill="url(#paint7_linear_116_279)"/>
<path d="M330.642 257.954C341.65 257.619 347.868 255.741 350.996 254.368C351.567 254.117 352.06 253.717 352.422 253.209C352.784 252.701 353.001 252.105 353.051 251.483L353.349 247.704C353.363 247.392 353.296 247.081 353.155 246.801C353.014 246.522 352.804 246.284 352.545 246.109C352.285 245.934 351.985 245.83 351.673 245.804C351.361 245.779 351.048 245.835 350.764 245.966C347.555 247.329 341.367 249.124 330.642 249.451C317.864 249.836 309.646 246.401 306.066 244.462C305.878 244.357 305.664 244.305 305.449 244.312C305.233 244.319 305.023 244.385 304.842 244.502C304.66 244.619 304.514 244.784 304.419 244.977C304.324 245.171 304.284 245.387 304.302 245.602L304.954 250.789C305.041 251.469 305.301 252.115 305.709 252.666C306.117 253.217 306.659 253.654 307.284 253.936C311.152 255.717 318.886 258.309 330.642 257.954Z" fill="url(#paint8_linear_116_279)"/>
<path opacity="0.49" d="M328.803 242.049C343.049 242.049 354.597 237.861 354.597 232.696C354.597 227.53 343.049 223.342 328.803 223.342C314.558 223.342 303.01 227.53 303.01 232.696C303.01 237.861 314.558 242.049 328.803 242.049Z" fill="#C9401B"/>
<path d="M321.278 232.696C321.278 232.696 318.801 155.864 310.38 151.902C301.959 147.94 290.814 165.273 314.095 170.472C337.376 175.672 364.125 164.035 355.952 153.14C347.778 142.246 341.834 151.159 339.853 173.691C337.872 196.223 336.633 232.696 336.633 232.696" stroke="#FFF3F3" stroke-width="4" stroke-miterlimit="10"/>
<defs>
<filter id="filter0_d_116_279" x="3.95325" y="0" width="448.047" height="296.476" filterUnits="userSpaceOnUse" color-interpolation-filters="sRGB">
<feFlood flood-opacity="0" result="BackgroundImageFix"/>
<feColorMatrix in="SourceAlpha" type="matrix" values="0 0 0 0 0 0 0 0 0 0 0 0 0 0 0 0 0 0 127 0" result="hardAlpha"/>
<feOffset dy="4"/>
<feGaussianBlur stdDeviation="2"/>
<feComposite in2="hardAlpha" operator="out"/>
<feColorMatrix type="matrix" values="0 0 0 0 0 0 0 0 0 0 0 0 0 0 0 0 0 0 0.25 0"/>
<feBlend mode="normal" in2="BackgroundImageFix" result="effect1_dropShadow_116_279"/>
<feBlend mode="normal" in="SourceGraphic" in2="effect1_dropShadow_116_279" result="shape"/>
</filter>
<linearGradient id="paint0_linear_116_279" x1="311.829" y1="-13.5188" x2="145.609" y2="299.389" gradientUnits="userSpaceOnUse">
<stop stop-color="white"/>
<stop offset="1" stop-color="#86D3FF"/>
</linearGradient>
<linearGradient id="paint1_linear_116_279" x1="273.277" y1="-58.7374" x2="185.885" y2="105.779" gradientUnits="userSpaceOnUse">
<stop stop-color="#587082"/>
<stop offset="1" stop-color="#1A1E28"/>
</linearGradient>
<linearGradient id="paint2_linear_116_279" x1="375.5" y1="53.5" x2="273" y2="301.5" gradientUnits="userSpaceOnUse">
<stop stop-color="white"/>
<stop offset="1" stop-color="white" stop-opacity="0.45"/>
</linearGradient>
<linearGradient id="paint3_linear_116_279" x1="211.243" y1="75.1223" x2="39.3329" y2="155.369" gradientUnits="userSpaceOnUse">
<stop stop-color="white"/>
<stop offset="1" stop-color="white"/>
</linearGradient>
<linearGradient id="paint4_linear_116_279" x1="391.417" y1="11.2036" x2="116.292" y2="139.63" gradientUnits="userSpaceOnUse">
<stop stop-color="white"/>
<stop offset="1" stop-color="white"/>
</linearGradient>
<linearGradient id="paint5_linear_116_279" x1="310.129" y1="262.098" x2="347.494" y2="262.098" gradientUnits="userSpaceOnUse">
<stop stop-color="#C1BFBF"/>
<stop offset="1" stop-color="#494C6C"/>
</linearGradient>
<linearGradient id="paint6_linear_116_279" x1="305.152" y1="250.011" x2="352.456" y2="250.011" gradientUnits="userSpaceOnUse">
<stop stop-color="#CDCED1"/>
<stop offset="1" stop-color="#F8F8F9"/>
</linearGradient>
<linearGradient id="paint7_linear_116_279" x1="343.5" y1="123.5" x2="328.803" y2="229.128" gradientUnits="userSpaceOnUse">
<stop stop-color="#FBDF7C"/>
<stop offset="1" stop-color="#FF961B"/>
</linearGradient>
<linearGradient id="paint8_linear_116_279" x1="304.293" y1="251.151" x2="353.354" y2="251.151" gradientUnits="userSpaceOnUse">
<stop stop-color="#C1BFBF"/>
<stop offset="1" stop-color="#494C6C"/>
</linearGradient>
</defs>
</svg>
