<svg width="51" height="51" viewBox="0 0 51 51" fill="none" xmlns="http://www.w3.org/2000/svg">
<path d="M51 25.5C51 39.5833 39.5833 51 25.5 51C11.4167 51 0 39.5833 0 25.5C0 11.4167 11.4167 0 25.5 0C39.5833 0 51 11.4167 51 25.5Z" fill="#EF6C7B"/>
<path fill-rule="evenodd" clip-rule="evenodd" d="M30.7507 16.023C28.5478 16.018 26.3024 17.0549 25.0174 19.248C23.7374 17.0391 21.5028 15.9921 19.3058 15.9871C16.1228 15.9799 13.0199 18.1599 13.0108 22.1639C13.0003 26.8249 18.5605 31.6055 24.975 38C31.4194 31.6345 37.0002 26.8792 37.0108 22.2182C37.0198 18.2072 33.9297 16.0302 30.7507 16.023Z" fill="white"/>
<path d="M24.5848 19.4987L25.0151 20.2412L25.4488 19.5008C26.633 17.4797 28.7019 16.5184 30.7496 16.523C33.7081 16.5297 36.5191 18.5347 36.5108 22.217C36.5059 24.3552 35.2178 26.5892 33.0261 29.1444C31.3966 31.0441 29.3257 33.0583 27.033 35.2883C26.3646 35.9385 25.6773 36.607 24.9766 37.2963C24.2776 36.6023 23.592 35.9293 22.9252 35.2747C20.6446 33.0361 18.5844 31.0139 16.9645 29.108C14.7842 26.543 13.506 24.3031 13.5108 22.165C13.5191 18.4887 16.3433 16.4804 19.3047 16.4871C21.3451 16.4917 23.4043 17.4614 24.5848 19.4987ZM24.622 38.3541L24.9734 38.7044L25.3264 38.3557C26.1322 37.5598 26.9273 36.7864 27.7016 36.0334C30.0052 33.7928 32.1236 31.7325 33.7851 29.7954C35.9975 27.2163 37.505 24.7422 37.5108 22.2193C37.5206 17.8796 34.1514 15.5307 30.7519 15.523C28.6235 15.5182 26.4434 16.4238 25.0199 18.3391C23.6029 16.409 21.4319 15.4919 19.3069 15.4871C15.9024 15.4794 12.5206 17.8311 12.5108 22.1628C12.5051 24.6856 14.0017 27.1666 16.2025 29.7557C17.8543 31.6989 19.9618 33.7675 22.2533 36.0168C23.0254 36.7746 23.8185 37.5531 24.622 38.3541ZM50.5 25.5C50.5 39.3071 39.3071 50.5 25.5 50.5C11.6929 50.5 0.5 39.3071 0.5 25.5C0.5 11.6929 11.6929 0.5 25.5 0.5C39.3071 0.5 50.5 11.6929 50.5 25.5Z" stroke="white"/>
</svg>
