<svg width="30" height="30" viewBox="0 0 36 36" fill="none" xmlns="http://www.w3.org/2000/svg">
<path d="M18 0C8.064 0 0 8.064 0 18C0 27.936 8.064 36 18 36C27.936 36 36 27.936 36 18C36 8.064 27.936 0 18 0ZM31.428 12.816L26.424 14.886C25.506 12.438 23.58 10.494 21.114 9.594L23.184 4.59C26.964 6.03 29.97 9.036 31.428 12.816ZM18 23.4C15.012 23.4 12.6 20.988 12.6 18C12.6 15.012 15.012 12.6 18 12.6C20.988 12.6 23.4 15.012 23.4 18C23.4 20.988 20.988 23.4 18 23.4ZM12.834 4.572L14.94 9.576C12.456 10.476 10.494 12.438 9.576 14.922L4.572 12.834C6.03 9.036 9.036 6.03 12.834 4.572ZM4.572 23.166L9.576 21.096C10.494 23.58 12.438 25.524 14.922 26.424L12.816 31.428C9.036 29.97 6.03 26.964 4.572 23.166ZM23.184 31.428L21.114 26.424C23.58 25.506 25.524 23.562 26.424 21.078L31.428 23.184C29.97 26.964 26.964 29.97 23.184 31.428Z" fill="#FF6359"/>
</svg>
