<svg width="51" height="51" viewBox="0 0 51 51" fill="none" xmlns="http://www.w3.org/2000/svg">
<circle cx="25.5" cy="25.5" r="25" fill="#638CDB" stroke="white"/>
<path d="M26.2511 11.5679L19.2799 18.6577C18.8143 19.1312 18.5501 19.7839 18.5501 20.4622V33.2469C18.5501 34.6546 19.6826 35.8064 21.0667 35.8064H32.3918C33.3985 35.8064 34.3045 35.1921 34.7072 34.2579L38.8094 24.519C39.8664 21.9851 38.0418 19.1696 35.3364 19.1696H28.2267L29.4221 13.3084C29.548 12.6685 29.3592 12.0158 28.9062 11.5551C28.1638 10.8128 26.981 10.8128 26.2511 11.5679ZM13.5167 35.8064C14.9009 35.8064 16.0334 34.6546 16.0334 33.2469V23.0089C16.0334 21.6011 14.9009 20.4494 13.5167 20.4494C12.1325 20.4494 11 21.6011 11 23.0089V33.2469C11 34.6546 12.1325 35.8064 13.5167 35.8064Z" fill="white"/>
</svg>
