<svg width="453" height="443" viewBox="0 0 453 443" fill="none" xmlns="http://www.w3.org/2000/svg">
<path opacity="0.57" fill-rule="evenodd" clip-rule="evenodd" d="M158.105 402.644C176.202 408.692 196.115 411.93 217.01 411.751C220.555 411.72 224.046 411.593 227.509 411.368C230.976 411.533 234.494 411.6 238.013 411.57C258.908 411.39 278.762 407.809 296.753 401.451C310.635 407.615 325.677 410.73 340.865 410.587C402.939 410.053 452.799 356.199 452.232 290.308C451.88 249.324 432.085 213.315 402.236 192.104C409.482 176.161 432.204 125.754 432.041 106.853C431.474 40.9619 344.754 102.467 299.902 20.9853C281.931 -11.6636 244.737 34.3147 224.424 52.8129C196.703 78.0561 169.921 50.3445 148.408 22.2888C92.0733 -51.1819 36.5003 76.6769 37.0672 142.568C37.2299 161.469 41.515 179.327 49.0344 195.144C19.5546 216.865 0.382864 253.209 0.735496 294.193C1.30247 360.084 52.0824 413.072 114.157 412.538C129.345 412.419 144.331 409.046 158.105 402.644Z" fill="#3E5B94"/>
<path fill-rule="evenodd" clip-rule="evenodd" d="M228.765 363.449L319.392 296.454L371.86 257.862C369.475 254.827 366.006 252.875 361.887 252.875H95.6434C91.7407 252.875 88.0548 254.827 85.6699 257.862L138.138 296.454L228.765 363.449Z" fill="#006F7F"/>
<path fill-rule="evenodd" clip-rule="evenodd" d="M228.765 152.275L319.392 219.27L371.86 257.862C369.475 260.897 366.006 262.849 361.887 262.849H95.6434C91.7407 262.849 88.0548 260.897 85.6699 257.862L138.138 219.27L228.765 152.275Z" fill="#007989"/>
<path d="M134.322 156.617H288.056L323.208 191.769V421.185H134.322V156.617Z" fill="white"/>
<path d="M323.208 191.833H288.12V156.745L323.208 191.769V191.833Z" fill="#E9E1D9"/>
<path fill-rule="evenodd" clip-rule="evenodd" d="M371.86 257.862C373.516 259.966 374.43 262.557 374.462 265.233V430.443C374.462 437.381 368.825 442.802 361.887 442.802H95.6434C94.0203 442.802 92.4129 442.483 90.9132 441.863C89.4135 441.242 88.0508 440.331 86.9031 439.184C85.7553 438.036 84.8451 436.673 84.2243 435.174C83.6035 433.674 83.2844 432.067 83.2852 430.443V265.233C83.2852 262.415 84.1523 259.813 85.67 257.862L138.138 296.454L228.765 363.449L319.392 296.454L371.86 257.862Z" fill="url(#paint0_linear_116_326)"/>
<path fill-rule="evenodd" clip-rule="evenodd" d="M228.765 332.228L138.138 399.006L85.6699 437.815C87.8381 440.85 91.5237 442.802 95.6434 442.802H361.887C366.006 442.802 369.692 440.85 371.86 437.815L319.392 399.006L228.765 332.228Z" fill="url(#paint1_linear_116_326)"/>
<path d="M309.391 199.9H149.156C147.872 199.9 146.831 200.941 146.831 202.225V204.964C146.831 206.248 147.872 207.289 149.156 207.289H309.391C310.675 207.289 311.716 206.248 311.716 204.964V202.225C311.716 200.941 310.675 199.9 309.391 199.9Z" fill="#A7A9AC"/>
<path d="M309.391 217.906H149.156C147.872 217.906 146.831 218.947 146.831 220.231V222.971C146.831 224.255 147.872 225.296 149.156 225.296H309.391C310.675 225.296 311.716 224.255 311.716 222.971V220.231C311.716 218.947 310.675 217.906 309.391 217.906Z" fill="#A7A9AC"/>
<path d="M309.391 237.825H149.156C147.872 237.825 146.831 238.866 146.831 240.15V242.889C146.831 244.173 147.872 245.214 149.156 245.214H309.391C310.675 245.214 311.716 244.173 311.716 242.889V240.15C311.716 238.866 310.675 237.825 309.391 237.825Z" fill="#A7A9AC"/>
<path d="M149.156 255.831H309.391C310.007 255.831 310.599 256.076 311.035 256.512C311.471 256.948 311.716 257.539 311.716 258.156V260.895C311.716 261.512 311.471 262.103 311.035 262.539C310.599 262.975 310.007 263.22 309.391 263.22H149.156C148.539 263.22 147.948 262.975 147.512 262.539C147.076 262.103 146.831 261.512 146.831 260.895V258.156C146.831 257.539 147.076 256.948 147.512 256.512C147.948 256.076 148.539 255.831 149.156 255.831Z" fill="#A7A9AC"/>
<path d="M309.391 273.193H149.156C147.872 273.193 146.831 274.234 146.831 275.518V278.257C146.831 279.541 147.872 280.582 149.156 280.582H309.391C310.675 280.582 311.716 279.541 311.716 278.257V275.518C311.716 274.234 310.675 273.193 309.391 273.193Z" fill="#A7A9AC"/>
<path d="M309.391 291.2H149.156C147.872 291.2 146.831 292.241 146.831 293.525V296.264C146.831 297.548 147.872 298.589 149.156 298.589H309.391C310.675 298.589 311.716 297.548 311.716 296.264V293.525C311.716 292.241 310.675 291.2 309.391 291.2Z" fill="#A7A9AC"/>
<path d="M270.835 88.9015C272.44 88.5526 274.045 89.4597 274.394 91.0648C274.495 91.436 274.521 91.8237 274.47 92.2052C274.419 92.5866 274.292 92.9539 274.097 93.2856C273.902 93.6173 273.643 93.9066 273.334 94.1364C273.025 94.3662 272.674 94.5318 272.3 94.6237L268.043 95.7402L263.647 96.8567L260.856 97.5545C260.478 97.657 260.084 97.6835 259.696 97.6322C259.308 97.581 258.934 97.4531 258.595 97.2561C258.257 97.059 257.961 96.7967 257.725 96.4844C257.489 96.172 257.318 95.8159 257.221 95.4367C257.124 95.0575 257.103 94.6628 257.16 94.2755C257.217 93.8882 257.35 93.516 257.552 93.1807C257.753 92.8453 258.02 92.5534 258.336 92.3219C258.651 92.0905 259.01 91.9241 259.39 91.8324L262.252 91.1346L266.578 90.018L270.835 88.9015ZM167.208 285.059C167.978 285.222 168.654 285.676 169.097 286.326C169.539 286.977 169.712 287.773 169.581 288.548C169.513 288.929 169.37 289.292 169.161 289.618C168.952 289.943 168.681 290.224 168.364 290.444C168.046 290.665 167.688 290.82 167.31 290.902C166.932 290.984 166.542 290.99 166.162 290.921L166.022 290.851L163.37 290.363L160.719 289.874L157.997 289.316L155.276 288.758L154.438 288.618C154.058 288.531 153.698 288.37 153.38 288.144C153.062 287.918 152.791 287.632 152.584 287.301C152.376 286.971 152.236 286.603 152.171 286.218C152.106 285.833 152.118 285.439 152.205 285.059C152.284 284.681 152.437 284.323 152.656 284.005C152.875 283.688 153.155 283.417 153.48 283.209C153.805 283.001 154.168 282.86 154.549 282.794C154.929 282.728 155.318 282.739 155.694 282.826L156.462 282.966L159.183 283.524L161.835 284.082L164.487 284.571L167.069 285.059H167.208ZM127.363 275.359C128.112 275.591 128.738 276.111 129.104 276.804C129.47 277.498 129.546 278.308 129.315 279.057C129.083 279.806 128.564 280.433 127.871 280.8C127.178 281.166 126.367 281.242 125.618 281.012L125.06 280.872L123.664 280.384L122.338 279.965L120.943 279.546L119.617 279.058L118.221 278.639L116.895 278.151L115.569 277.662L114.313 277.244C113.947 277.115 113.609 276.916 113.32 276.657C113.03 276.398 112.794 276.085 112.626 275.735C112.457 275.385 112.359 275.006 112.338 274.618C112.316 274.23 112.371 273.842 112.499 273.475C112.774 272.731 113.33 272.124 114.048 271.785C114.765 271.446 115.587 271.401 116.337 271.661L117.523 272.08L118.849 272.568L120.175 272.987L121.501 273.475L122.827 273.894L124.153 274.382L125.479 274.801L126.804 275.22L127.363 275.359ZM89.5408 260.217C89.8892 260.39 90.1991 260.632 90.4521 260.928C90.705 261.224 90.8958 261.568 91.013 261.939C91.1302 262.31 91.1715 262.701 91.1343 263.089C91.0972 263.476 90.9824 263.852 90.7968 264.194C90.4304 264.883 89.8085 265.4 89.0647 265.635C88.3209 265.87 87.5146 265.804 86.8193 265.45L85.9819 264.962L84.7956 264.334L83.5395 263.706L82.3532 263.078L81.2367 262.45L80.0504 261.752L78.8641 261.124L77.7476 260.426L76.6311 259.728L76.2821 259.589C74.9563 258.681 74.4678 256.867 75.375 255.471C75.5803 255.145 75.8481 254.863 76.1631 254.64C76.478 254.418 76.8338 254.26 77.2099 254.176C77.5861 254.091 77.9753 254.082 78.355 254.149C78.7347 254.216 79.0974 254.357 79.4224 254.564L79.7015 254.704L80.7482 255.332L81.8647 256.03L82.9812 256.658L84.0977 257.286L85.2143 257.914L86.4005 258.542L87.5171 259.17L88.7034 259.728L89.5408 260.217ZM56.8827 236.84C57.1473 237.117 57.3539 237.445 57.4903 237.804C57.6268 238.162 57.6904 238.544 57.6774 238.928C57.6644 239.311 57.5751 239.688 57.4147 240.036C57.2542 240.385 57.026 240.698 56.7432 240.957C56.1684 241.491 55.4054 241.777 54.6209 241.75C53.8364 241.724 53.0942 241.389 52.5562 240.817L52.2771 240.468L51.4397 239.631L50.6721 238.724L49.9045 237.886L49.2067 236.979L48.5089 236.072L47.7413 235.165L47.1132 234.258L46.4154 233.351L45.7874 232.374L45.1593 231.466L44.95 231.117C44.5335 230.46 44.3952 229.665 44.5653 228.906C44.7354 228.147 45.2001 227.487 45.8571 227.07C46.5141 226.654 47.3097 226.515 48.0687 226.685C48.8277 226.856 49.4881 227.32 49.9045 227.977L50.0441 228.187L50.6721 229.094L51.2304 229.931L51.8584 230.769L52.4865 231.606L53.1145 232.443L53.7425 233.211L54.4404 234.048L55.1382 234.886L55.836 235.653L56.6036 236.491L56.8827 236.84ZM46.3456 201.879C45.8571 203.484 44.2521 204.391 42.717 203.902C41.1119 203.414 40.2048 201.809 40.6933 200.274L40.763 199.785L41.0422 199.018L41.2515 198.25L41.5306 197.483L41.8098 196.715L42.1587 195.947L42.4378 195.18L42.7867 194.412L43.1357 193.645L43.4846 192.877L43.8335 192.109L44.2521 191.342L44.6011 190.644L45.0198 189.876L45.5082 189.178L45.7176 188.76C45.9133 188.424 46.175 188.13 46.4869 187.898C46.7989 187.666 47.1546 187.499 47.5328 187.408C47.9109 187.316 48.3036 187.302 48.6872 187.367C49.0708 187.431 49.4374 187.573 49.7649 187.783C50.095 187.984 50.3822 188.249 50.61 188.561C50.8378 188.874 51.0017 189.228 51.0925 189.604C51.1832 189.98 51.1989 190.37 51.1388 190.752C51.0786 191.134 50.9438 191.5 50.7419 191.83L50.5326 192.179L50.1836 192.807L49.8347 193.435L49.4858 194.133L49.1369 194.761L48.788 195.459L48.5089 196.087L48.16 196.785L47.8808 197.413L47.6017 198.111L47.3923 198.739L47.1132 199.436L46.9039 200.134L46.6945 200.762L46.4852 201.46L46.3456 201.879ZM70.1413 171.175C69.5212 171.654 68.7361 171.868 67.9584 171.769C67.1807 171.671 66.474 171.267 65.9934 170.648C65.5127 170.029 65.2975 169.244 65.3948 168.466C65.4922 167.688 65.8942 166.981 66.5127 166.499L66.6523 166.429L67.4896 165.801L68.327 165.173L69.1644 164.476L70.0018 163.848L70.9089 163.219L71.7463 162.591L72.6535 161.963L73.5607 161.335L74.4678 160.707L75.375 160.079L76.2821 159.521C76.6062 159.302 76.9707 159.149 77.3544 159.073C77.7381 158.996 78.1333 158.997 78.5167 159.075C78.9001 159.153 79.2641 159.306 79.5874 159.527C79.9107 159.747 80.1867 160.03 80.3993 160.358C81.3065 161.684 80.8878 163.499 79.5619 164.406L78.6548 165.034L77.8173 165.592L76.9102 166.22L76.0728 166.848L75.1656 167.406L74.3283 168.034L73.4908 168.663L72.6535 169.221L71.8859 169.849L71.0485 170.477L70.2809 171.105L70.1413 171.175ZM104.893 150.031C104.179 150.365 103.363 150.406 102.619 150.145C101.875 149.884 101.264 149.342 100.915 148.635C100.75 148.287 100.655 147.91 100.635 147.525C100.616 147.14 100.673 146.755 100.802 146.392C100.932 146.029 101.132 145.695 101.391 145.409C101.65 145.124 101.962 144.892 102.311 144.727L104.265 143.681L106.568 142.634L108.87 141.517L111.173 140.401L113.057 139.563C113.772 139.258 114.577 139.24 115.305 139.513C116.033 139.786 116.627 140.329 116.965 141.029C117.593 142.564 116.965 144.309 115.5 144.937L113.685 145.774L111.383 146.821L109.15 147.937L106.917 148.984L104.893 150.031ZM142.575 133.632C142.214 133.781 141.826 133.856 141.435 133.853C141.045 133.849 140.658 133.767 140.3 133.61C139.942 133.454 139.619 133.227 139.35 132.943C139.082 132.659 138.873 132.324 138.737 131.957C138.474 131.224 138.501 130.419 138.812 129.705C139.124 128.992 139.696 128.425 140.412 128.119L140.621 128.049L143.133 127.072L145.715 126.165L148.297 125.188L150.879 124.211L151.577 124.002C152.308 123.734 153.116 123.767 153.823 124.094C154.529 124.421 155.077 125.015 155.345 125.746C155.614 126.478 155.581 127.285 155.253 127.992C154.926 128.699 154.332 129.246 153.601 129.515L152.903 129.794L150.321 130.701L147.809 131.678L145.227 132.655L142.715 133.562L142.575 133.632ZM181.444 120.024C181.077 120.144 180.691 120.19 180.306 120.16C179.922 120.129 179.547 120.024 179.204 119.849C178.86 119.674 178.554 119.433 178.304 119.14C178.053 118.847 177.863 118.507 177.744 118.141C177.625 117.774 177.579 117.387 177.609 117.003C177.64 116.619 177.745 116.244 177.92 115.901C178.096 115.557 178.337 115.251 178.63 115.001C178.923 114.751 179.263 114.561 179.629 114.442L179.699 114.372L182.351 113.535L185.003 112.697L187.654 111.86L190.306 111.092L190.934 110.883C191.684 110.652 192.494 110.727 193.188 111.094C193.882 111.46 194.401 112.087 194.633 112.837C194.864 113.586 194.788 114.397 194.422 115.091C194.055 115.784 193.428 116.304 192.679 116.535L192.051 116.745L189.399 117.512L186.817 118.35L184.165 119.187L181.514 120.024H181.444ZM220.94 108.231C220.565 108.336 220.172 108.365 219.785 108.316C219.398 108.267 219.024 108.141 218.687 107.946C218.349 107.751 218.053 107.491 217.817 107.181C217.581 106.87 217.409 106.515 217.312 106.138C217.119 105.389 217.221 104.594 217.598 103.919C217.975 103.243 218.597 102.738 219.336 102.509L224.011 101.253L229.105 99.8573L230.78 99.3689C231.539 99.1653 232.347 99.2715 233.028 99.664C233.708 100.057 234.205 100.703 234.408 101.462C234.612 102.221 234.506 103.03 234.113 103.71C233.721 104.391 233.074 104.887 232.315 105.091L230.64 105.51L225.616 106.905L220.94 108.231Z" fill="white"/>
<path fill-rule="evenodd" clip-rule="evenodd" d="M302.909 59.2487L290.919 90.3253L322.641 83.5424L302.909 59.2487Z" fill="#999999"/>
<path fill-rule="evenodd" clip-rule="evenodd" d="M310.969 97.6519L294.16 29.7045L433.302 73.4112L310.969 97.6519Z" fill="white"/>
<path fill-rule="evenodd" clip-rule="evenodd" d="M290.963 90.4308C290.82 84.3052 294.163 67.2947 300.491 54.8223L430.167 73.3391L302.15 62.0995C298.644 71.3848 293.896 87.395 290.963 90.4308Z" fill="#DBE3EA"/>
<path d="M406.103 201.326C380.679 201.326 360.013 215.446 360.013 232.747C360.013 241.652 365.451 249.666 374.153 255.39L363.956 275.998L394.547 263.15C398.358 263.851 402.228 264.191 406.103 264.168C431.528 264.168 452.126 250.111 452.126 232.747C452.126 215.446 431.528 201.326 406.103 201.326Z" fill="#00355F"/>
<path d="M402.59 201.326C377.165 201.326 356.499 215.446 356.499 232.747C356.499 241.652 361.938 249.666 370.639 255.39L360.442 275.998L391.033 263.15C394.845 263.851 398.714 264.191 402.59 264.168C428.014 264.168 448.612 250.111 448.612 232.747C448.612 215.446 428.014 201.326 402.59 201.326Z" fill="white"/>
<path d="M75.6403 113.88C47.9589 113.88 25.4385 91.3595 25.4385 63.6783C25.4385 35.9968 47.9589 13.4763 75.6403 13.4763C103.322 13.4763 125.842 35.9968 125.842 63.6783C125.842 91.3595 103.322 113.88 75.6403 113.88ZM75.6403 17.0747C49.943 17.0747 29.0368 37.9809 29.0368 63.6783C29.0368 89.3754 49.943 110.282 75.6403 110.282C101.338 110.282 122.244 89.3754 122.244 63.6783C122.244 37.9809 101.338 17.0747 75.6403 17.0747Z" fill="white"/>
<path d="M75.6404 113.88C67.6529 113.88 60.2069 108.511 54.6738 98.7613C49.3224 89.3319 46.3752 76.8725 46.3752 63.6783C46.3752 50.484 49.3224 38.0246 54.6738 28.5952C60.2069 18.8455 67.6529 13.4763 75.6404 13.4763C83.6277 13.4763 91.074 18.8455 96.607 28.5952C101.958 38.0246 104.906 50.484 104.906 63.6783C104.906 76.8725 101.958 89.3319 96.607 98.7613C91.074 108.511 83.6277 113.88 75.6404 113.88ZM75.6404 17.0747C69.0042 17.0747 62.6695 21.7969 57.8033 30.3713C52.7543 39.2679 49.9736 51.0965 49.9736 63.6783C49.9736 76.2599 52.7543 88.0885 57.8033 96.9852C62.6695 105.559 69.0042 110.282 75.6404 110.282C82.2767 110.282 88.6113 105.559 93.4776 96.9852C98.5266 88.0885 101.307 76.2599 101.307 63.6783C101.307 51.0965 98.5266 39.2679 93.4776 30.3713C88.6113 21.7969 82.2767 17.0747 75.6404 17.0747Z" fill="white"/>
<path d="M77.4397 15.2755H73.8413V112.081H77.4397V15.2755Z" fill="white"/>
<path d="M124.043 61.879H27.2378V65.4774H124.043V61.879Z" fill="white"/>
<path d="M75.6405 41.489C63.2731 41.5428 51.2628 37.3446 41.622 29.5978L39.9924 28.2956L41.5199 26.8748C50.7945 18.263 62.9825 13.4768 75.6387 13.4763C88.295 13.4759 100.483 18.2612 109.759 26.8724L111.292 28.2928L109.659 29.5978C99.9893 37.2922 87.9981 41.4838 75.6405 41.489ZM45.569 28.0898C54.2798 34.5021 64.8241 37.9387 75.6405 37.8906C86.4467 37.885 96.973 34.4541 105.707 28.0909C97.3025 20.9781 86.6487 17.0749 75.6383 17.0747C64.6278 17.0745 53.9738 20.9773 45.569 28.0898Z" fill="white"/>
<path d="M75.6404 113.88C62.9882 113.897 50.7986 109.124 41.5226 100.52L39.9888 99.0993L41.6218 97.7941C51.2585 90.0357 63.2688 85.8249 75.6404 85.8673C88.0019 85.884 99.9932 90.0881 109.659 97.7941L111.296 99.1019L109.755 100.522C100.472 109.113 88.2887 113.884 75.6404 113.88ZM45.5723 99.2989C53.9849 106.392 64.6343 110.282 75.6379 110.282C86.6416 110.281 97.2908 106.391 105.703 99.2978C96.9743 92.9234 86.449 89.481 75.6404 89.4656C64.8213 89.4268 54.2777 92.8749 45.5723 99.2989Z" fill="white"/>
<defs>
<linearGradient id="paint0_linear_116_326" x1="84.5534" y1="363.635" x2="374.416" y2="336.001" gradientUnits="userSpaceOnUse">
<stop stop-color="#00CBD4"/>
<stop offset="0.19232" stop-color="#03CCD4"/>
<stop offset="0.32599" stop-color="#0CCDD6"/>
<stop offset="0.4419" stop-color="#1BD1D9"/>
<stop offset="0.54776" stop-color="#31D5DC"/>
<stop offset="0.64672" stop-color="#4EDBE1"/>
<stop offset="0.74065" stop-color="#70E2E7"/>
<stop offset="0.83056" stop-color="#9AEAEE"/>
<stop offset="0.91534" stop-color="#C8F4F6"/>
<stop offset="0.99677" stop-color="#FDFFFF"/>
<stop offset="1" stop-color="white"/>
</linearGradient>
<linearGradient id="paint1_linear_116_326" x1="100.144" y1="440.782" x2="377.313" y2="365.471" gradientUnits="userSpaceOnUse">
<stop stop-color="#00CBD4"/>
<stop offset="0.09367" stop-color="#06CCD5"/>
<stop offset="0.21857" stop-color="#17D0D8"/>
<stop offset="0.36113" stop-color="#33D5DD"/>
<stop offset="0.5168" stop-color="#59DDE3"/>
<stop offset="0.68318" stop-color="#8BE7EB"/>
<stop offset="0.8557" stop-color="#C7F4F6"/>
<stop offset="1" stop-color="white"/>
</linearGradient>
</defs>
</svg>
