<svg width="52" height="40" viewBox="0 0 52 40" fill="none" xmlns="http://www.w3.org/2000/svg">
<path d="M37.5569 0.0453148C37.3827 0.0691223 36.9907 0.121498 36.6858 0.164352C34.4257 0.464336 32.427 1.46428 30.7332 3.1356C29.4216 4.42599 28.565 5.90686 28.2263 7.47343C27.9262 8.83525 27.9262 9.74472 28.2166 11.1208C28.8167 13.973 31.3333 16.4681 34.2176 17.0776C35.9647 17.449 37.4989 17.3109 39.696 16.5919C41.5931 15.9681 42.1787 15.9062 42.9046 16.2538C43.9306 16.7395 44.5598 17.8633 44.7243 19.506C44.7921 20.1774 44.7534 21.6154 44.6469 22.4677C44.3081 25.1485 43.287 27.596 41.6899 29.5625C41.2398 30.1197 39.9332 31.391 39.1879 32.0005C37.4989 33.3814 35.4372 34.7622 32.8626 36.2431L31.8221 36.8383L31.8075 38.4191L31.7979 40L31.9624 39.9714C32.2189 39.9238 34.0192 39.3191 34.7742 39.0239C38.8007 37.4668 42.1594 35.3241 44.8405 32.6052C46.6698 30.7529 48.3298 28.4579 49.4913 26.1723C50.8657 23.4724 51.6159 20.8869 51.9401 17.7061C52.0224 16.9205 52.0175 14.3206 51.9401 13.635C51.4707 9.71139 50.1543 6.85442 47.599 4.2403C45.3389 1.92615 42.7353 0.516712 40.0493 0.159592C39.7299 0.121498 39.3089 0.0643616 39.1153 0.0405502C38.6991 -0.0165863 37.9973 -0.0118256 37.5569 0.0453148Z" fill="#CDCDCD"/>
<path d="M9.55693 0.0453148C9.38271 0.0691228 8.99071 0.121498 8.68581 0.164352C6.42574 0.464334 4.427 1.46428 2.73316 3.1356C1.42164 4.426 0.565033 5.90686 0.226264 7.47343C-0.0737884 8.83525 -0.0737884 9.74472 0.216585 11.1208C0.81669 13.973 3.33326 16.4681 6.21764 17.0776C7.96472 17.449 9.49886 17.3109 11.696 16.5919C13.5931 15.9681 14.1787 15.9062 14.9046 16.2538C15.9306 16.7395 16.5598 17.8633 16.7243 19.506C16.7921 20.1774 16.7534 21.6154 16.6469 22.4677C16.3081 25.1485 15.287 27.596 13.6899 29.5625C13.2398 30.1197 11.9332 31.391 11.1879 32.0005C9.49886 33.3814 7.43721 34.7622 4.86256 36.2431L3.82206 36.8383L3.80754 38.4191L3.79786 40L3.9624 39.9714C4.2189 39.9238 6.01922 39.3191 6.77419 39.0239C10.8007 37.4668 14.1594 35.3241 16.8405 32.6052C18.6698 30.7529 20.3298 28.4579 21.4913 26.1723C22.8657 23.4724 23.6159 20.8869 23.9401 17.7061C24.0224 16.9205 24.0175 14.3206 23.9401 13.635C23.4707 9.71139 22.1543 6.85442 19.599 4.2403C17.3389 1.92615 14.7353 0.516713 12.0493 0.159592C11.7299 0.121499 11.3089 0.0643583 11.1153 0.0405502C10.6991 -0.0165891 9.99733 -0.0118246 9.55693 0.0453148Z" fill="#CDCDCD"/>
</svg>
