<svg width="52" height="40" viewBox="0 0 52 40" fill="none" xmlns="http://www.w3.org/2000/svg">
<path d="M14.4431 39.9547C14.6173 39.9309 15.0093 39.8785 15.3142 39.8356C17.5743 39.5357 19.573 38.5357 21.2668 36.8644C22.5784 35.574 23.435 34.0931 23.7737 32.5266C24.0738 31.1648 24.0738 30.2553 23.7834 28.8792C23.1833 26.027 20.6667 23.5319 17.7824 22.9224C16.0353 22.551 14.5011 22.6891 12.304 23.4081C10.4069 24.0319 9.82129 24.0938 9.09536 23.7462C8.06937 23.2605 7.44023 22.1367 7.27568 20.494C7.20793 19.8226 7.24664 18.3846 7.35311 17.5323C7.69188 14.8515 8.71303 12.404 10.3101 10.4375C10.7602 9.88035 12.0668 8.609 12.8121 7.99951C14.5011 6.61864 16.5628 5.23777 19.1374 3.75691L20.1779 3.16171L20.1925 1.58086L20.2021 3.32019e-07L20.0376 0.02857C19.7811 0.0761862 17.9808 0.680911 17.2258 0.976131C13.1993 2.53318 9.84065 4.6759 7.15953 7.39478C5.33018 9.24705 3.67021 11.5421 2.50872 13.8277C1.13428 16.5276 0.384151 19.1131 0.0599003 22.2939C-0.0223712 23.0795 -0.017532 25.6794 0.0599007 26.365C0.52934 30.2886 1.8457 33.1456 4.40099 35.7597C6.66106 38.0739 9.26474 39.4833 11.9507 39.8404C12.2701 39.8785 12.6911 39.9356 12.8847 39.9595C13.3009 40.0166 14.0027 40.0118 14.4431 39.9547Z" fill="#CDCDCD"/>
<path d="M42.4431 39.9547C42.6173 39.9309 43.0093 39.8785 43.3142 39.8356C45.5743 39.5357 47.573 38.5357 49.2668 36.8644C50.5784 35.574 51.435 34.0931 51.7737 32.5266C52.0738 31.1648 52.0738 30.2553 51.7834 28.8792C51.1833 26.027 48.6667 23.5319 45.7824 22.9224C44.0353 22.551 42.5011 22.6891 40.304 23.4081C38.4069 24.0319 37.8213 24.0938 37.0954 23.7462C36.0694 23.2605 35.4402 22.1367 35.2757 20.494C35.2079 19.8226 35.2466 18.3846 35.3531 17.5323C35.6919 14.8515 36.713 12.404 38.3101 10.4375C38.7602 9.88035 40.0668 8.609 40.8121 7.99951C42.5011 6.61864 44.5628 5.23777 47.1374 3.75691L48.1779 3.16171L48.1925 1.58086L48.2021 3.32019e-07L48.0376 0.02857C47.7811 0.0761862 45.9808 0.680911 45.2258 0.976131C41.1993 2.53318 37.8406 4.6759 35.1595 7.39478C33.3302 9.24705 31.6702 11.5421 30.5087 13.8277C29.1343 16.5276 28.3842 19.1131 28.0599 22.2939C27.9776 23.0795 27.9825 25.6794 28.0599 26.365C28.5293 30.2886 29.8457 33.1456 32.401 35.7597C34.6611 38.0739 37.2647 39.4833 39.9507 39.8404C40.2701 39.8785 40.6911 39.9356 40.8847 39.9595C41.3009 40.0166 42.0027 40.0118 42.4431 39.9547Z" fill="#CDCDCD"/>
</svg>
