<svg width="425" height="332" viewBox="0 0 425 332" fill="none" xmlns="http://www.w3.org/2000/svg">
<g filter="url(#filter0_d_166_4)">
<path d="M384.188 245.565C378.804 218.396 354.817 198 326 198C303.121 198 283.25 210.915 273.354 229.815C249.525 232.335 231 252.416 231 276.75C231 302.816 252.296 324 278.5 324H381.417C403.267 324 421 306.36 421 284.625C421 263.835 404.771 246.983 384.188 245.565Z" fill="#DCE6ED"/>
</g>
<g filter="url(#filter1_d_166_4)">
<path d="M231.064 197.913L223.3 259.057C222.698 263.794 220.336 268.132 216.684 271.207L155.685 322.575C155.685 322.575 145.267 305.212 159.462 292.749C173.657 280.286 186.712 269.724 188.715 261.171C190.719 252.618 184.897 240.022 184.897 240.022L231.064 197.913Z" fill="url(#paint0_linear_166_4)"/>
<path d="M145.41 123.425L88.1662 131.631C81.027 132.654 74.5342 136.327 69.9781 141.919L22 200.807C22 200.807 39.5235 210.948 51.7551 196.553C63.9867 182.157 74.3353 168.931 82.8532 166.791C91.3712 164.651 104.056 170.271 104.056 170.271L145.41 123.425Z" fill="url(#paint1_linear_166_4)"/>
<path d="M175.207 243.711C175.207 243.711 140.287 263.347 116.925 242.165C93.5643 220.983 109.527 187.108 109.527 187.108L175.207 243.711Z" fill="url(#paint2_linear_166_4)"/>
<path d="M134.114 226.947C108.765 205.877 103.067 172.335 103.067 172.335C103.067 172.335 119.589 124.143 161.895 85.8367C180.754 68.7661 202.313 56.5441 222.713 47.8457C232.112 43.8484 241.718 40.3561 251.49 37.3837C278.827 29.0667 299.401 27.0863 300.431 27L300.482 27.0017L300.429 27.0514C300.491 28.3034 301.997 62.8219 291.3 104.081C285.557 126.29 276.276 150.438 261.33 172.432C229.261 219.635 183.827 242.65 183.827 242.65C183.827 242.65 159.463 248.016 134.114 226.947Z" fill="url(#paint3_linear_166_4)" stroke="#B3B3B3" stroke-width="0.25" stroke-miterlimit="10"/>
<path d="M239.433 147.256C248.3 133.487 244.33 115.136 230.565 106.266C216.8 97.3957 198.452 101.367 189.585 115.135C180.717 128.904 184.687 147.256 198.452 156.126C212.217 164.995 230.565 161.024 239.433 147.256Z" fill="url(#paint4_linear_166_4)"/>
<path d="M278.583 105.051C247.528 104.034 228.015 76.5485 227.757 45.7526C237.774 41.4741 242.481 40.1367 251.49 37.3837C278.828 29.0667 299.401 27.0863 300.431 27L300.483 27.0017L300.429 27.0514C300.491 28.3034 301.998 62.8219 291.3 104.081C287.109 104.869 282.845 105.194 278.583 105.051Z" fill="url(#paint5_linear_166_4)"/>
<path d="M276.913 112.81C242.778 111.693 221.298 82.4285 221.014 48.5775C232.025 43.8746 237.23 41.4561 247.133 38.43C277.182 29.288 299.796 27.1111 300.929 27.0163L300.985 27.0181L300.927 27.0727C300.995 28.4489 300.864 66.7023 289.105 112.054C284.599 112.904 281.707 112.967 276.913 112.81Z" fill="url(#paint6_linear_166_4)"/>
<path d="M178.333 166.736L83.8591 273.781L88.884 278.774L183.747 170.884L178.333 166.736Z" fill="url(#paint7_linear_166_4)"/>
<path d="M213.702 155.769C208.845 155.608 204.143 154.011 200.193 151.178C196.243 148.345 193.222 144.405 191.51 139.854C189.799 135.304 189.475 130.348 190.579 125.614C191.683 120.879 194.166 116.579 197.713 113.255C201.261 109.932 205.713 107.735 210.509 106.943C215.304 106.15 220.227 106.798 224.655 108.804C229.082 110.809 232.816 114.083 235.383 118.211C237.951 122.338 239.238 127.135 239.08 131.994C238.854 138.508 236.056 144.667 231.3 149.123C226.543 153.579 220.216 155.969 213.702 155.769Z" fill="url(#paint8_linear_166_4)"/>
<path d="M216.763 152.222C213.537 152.116 210.363 151.375 207.424 150.041C204.484 148.708 201.836 146.809 199.63 144.452C197.424 142.094 195.704 139.326 194.569 136.304C193.433 133.281 192.903 130.065 193.011 126.838C193.157 122.03 194.728 117.373 197.523 113.459C201.934 109.218 207.768 106.776 213.884 106.613C220 106.449 225.957 108.576 230.588 112.575C235.218 116.575 238.19 122.159 238.919 128.235C239.649 134.311 238.085 140.441 234.533 145.424C232.174 147.686 229.387 149.453 226.335 150.621C223.283 151.789 220.029 152.333 216.763 152.222Z" fill="url(#paint9_linear_166_4)"/>
<g opacity="0.61">
<path d="M202.371 146.968L217.12 133.162L198.604 112.483C198.604 112.483 189.687 122.466 194.346 135.69C199.006 148.915 202.371 146.968 202.371 146.968Z" fill="#007CB8"/>
<path d="M215.311 106.627L238.945 136.14L237.537 139.789L210.121 107.007L215.311 106.627Z" fill="#007CB8"/>
<path d="M216.764 152.222L221.306 141.272L219.902 140.718L215.301 152.174L216.764 152.222Z" fill="#007CB8"/>
<path d="M228.547 149.645L204.571 145.298L205.708 143.844L230.448 148.582L228.547 149.645Z" fill="#007CB8"/>
</g>
<path opacity="0.36" d="M228.93 151.092L217.981 106.861L211.68 106.893L224.221 153.784L228.93 151.092Z" fill="white"/>
</g>
<g filter="url(#filter2_d_166_4)">
<path d="M123.325 36.995C119.132 15.8637 100.447 0 78 0C60.1783 0 44.7 10.045 36.9917 24.745C18.43 26.705 4 42.3238 4 61.25C4 81.5238 20.5883 98 41 98H121.167C138.187 98 152 84.28 152 67.375C152 51.205 139.358 38.0975 123.325 36.995Z" fill="#DCE6ED"/>
</g>
<defs>
<filter id="filter0_d_166_4" x="227" y="198" width="198" height="134" filterUnits="userSpaceOnUse" color-interpolation-filters="sRGB">
<feFlood flood-opacity="0" result="BackgroundImageFix"/>
<feColorMatrix in="SourceAlpha" type="matrix" values="0 0 0 0 0 0 0 0 0 0 0 0 0 0 0 0 0 0 127 0" result="hardAlpha"/>
<feOffset dy="4"/>
<feGaussianBlur stdDeviation="2"/>
<feComposite in2="hardAlpha" operator="out"/>
<feColorMatrix type="matrix" values="0 0 0 0 0 0 0 0 0 0 0 0 0 0 0 0 0 0 0.25 0"/>
<feBlend mode="normal" in2="BackgroundImageFix" result="effect1_dropShadow_166_4"/>
<feBlend mode="normal" in="SourceGraphic" in2="effect1_dropShadow_166_4" result="shape"/>
</filter>
<filter id="filter1_d_166_4" x="18" y="26.8748" width="286.985" height="303.701" filterUnits="userSpaceOnUse" color-interpolation-filters="sRGB">
<feFlood flood-opacity="0" result="BackgroundImageFix"/>
<feColorMatrix in="SourceAlpha" type="matrix" values="0 0 0 0 0 0 0 0 0 0 0 0 0 0 0 0 0 0 127 0" result="hardAlpha"/>
<feOffset dy="4"/>
<feGaussianBlur stdDeviation="2"/>
<feComposite in2="hardAlpha" operator="out"/>
<feColorMatrix type="matrix" values="0 0 0 0 0 0 0 0 0 0 0 0 0 0 0 0 0 0 0.25 0"/>
<feBlend mode="normal" in2="BackgroundImageFix" result="effect1_dropShadow_166_4"/>
<feBlend mode="normal" in="SourceGraphic" in2="effect1_dropShadow_166_4" result="shape"/>
</filter>
<filter id="filter2_d_166_4" x="0" y="0" width="156" height="106" filterUnits="userSpaceOnUse" color-interpolation-filters="sRGB">
<feFlood flood-opacity="0" result="BackgroundImageFix"/>
<feColorMatrix in="SourceAlpha" type="matrix" values="0 0 0 0 0 0 0 0 0 0 0 0 0 0 0 0 0 0 127 0" result="hardAlpha"/>
<feOffset dy="4"/>
<feGaussianBlur stdDeviation="2"/>
<feComposite in2="hardAlpha" operator="out"/>
<feColorMatrix type="matrix" values="0 0 0 0 0 0 0 0 0 0 0 0 0 0 0 0 0 0 0.25 0"/>
<feBlend mode="normal" in2="BackgroundImageFix" result="effect1_dropShadow_166_4"/>
<feBlend mode="normal" in="SourceGraphic" in2="effect1_dropShadow_166_4" result="shape"/>
</filter>
<linearGradient id="paint0_linear_166_4" x1="179.174" y1="232.08" x2="202.917" y2="279.202" gradientUnits="userSpaceOnUse">
<stop stop-color="#EF6100"/>
<stop offset="1" stop-color="#FFC524"/>
</linearGradient>
<linearGradient id="paint1_linear_166_4" x1="112.086" y1="175.867" x2="64.593" y2="152.894" gradientUnits="userSpaceOnUse">
<stop stop-color="#EF6100"/>
<stop offset="1" stop-color="#FFC524"/>
</linearGradient>
<linearGradient id="paint2_linear_166_4" x1="140.991" y1="188.138" x2="138.906" y2="251.866" gradientUnits="userSpaceOnUse">
<stop stop-color="#38ACA8"/>
<stop offset="1" stop-color="#5F637A"/>
</linearGradient>
<linearGradient id="paint3_linear_166_4" x1="218.506" y1="128.056" x2="163.812" y2="79.9658" gradientUnits="userSpaceOnUse">
<stop stop-color="white"/>
<stop offset="0.39151" stop-color="#EEF0EE"/>
<stop offset="1" stop-color="#9CBFCC"/>
</linearGradient>
<linearGradient id="paint4_linear_166_4" x1="215.48" y1="101.555" x2="213.54" y2="160.833" gradientUnits="userSpaceOnUse">
<stop stop-color="#EF6100"/>
<stop offset="1" stop-color="#FFC524"/>
</linearGradient>
<linearGradient id="paint5_linear_166_4" x1="289.552" y1="73.0118" x2="260.038" y2="48.1233" gradientUnits="userSpaceOnUse">
<stop stop-color="#66D5EA"/>
<stop offset="0.56132" stop-color="#0087E7"/>
<stop offset="1" stop-color="#067CB7"/>
</linearGradient>
<linearGradient id="paint6_linear_166_4" x1="288.332" y1="77.2151" x2="256.491" y2="50.3641" gradientUnits="userSpaceOnUse">
<stop stop-color="#38ACA8"/>
<stop offset="1" stop-color="#5F637A"/>
</linearGradient>
<linearGradient id="paint7_linear_166_4" x1="122.972" y1="200.827" x2="141.316" y2="237.232" gradientUnits="userSpaceOnUse">
<stop stop-color="#EF6100"/>
<stop offset="1" stop-color="#FFC524"/>
</linearGradient>
<linearGradient id="paint8_linear_166_4" x1="215.319" y1="106.627" x2="213.71" y2="155.769" gradientUnits="userSpaceOnUse">
<stop stop-color="#38ACA8"/>
<stop offset="1" stop-color="#5F637A"/>
</linearGradient>
<linearGradient id="paint9_linear_166_4" x1="216.789" y1="106.675" x2="215.3" y2="152.174" gradientUnits="userSpaceOnUse">
<stop stop-color="#38ACA8"/>
<stop offset="1" stop-color="#6BE8DC"/>
</linearGradient>
</defs>
</svg>
