<svg width="177" height="35" viewBox="0 0 177 35" fill="none" xmlns="http://www.w3.org/2000/svg">
<g filter="url(#filter0_d_116_481)">
<path d="M19.3894 3.65372C19.0744 2.76656 17.8198 2.76656 17.5047 3.65372L14.8216 11.2096C14.6799 11.6085 14.3025 11.875 13.8792 11.875H5.99696C5.03626 11.875 4.62826 13.0977 5.39647 13.6746L12.0665 18.6835C12.4163 18.9462 12.5548 19.4056 12.4084 19.8178L9.90293 26.8734C9.5714 27.807 10.6536 28.6025 11.4458 28.0076L17.8466 23.2009C18.2023 22.9338 18.6918 22.9338 19.0476 23.2009L25.4484 28.0076C26.2406 28.6026 27.3227 27.807 26.9912 26.8734L24.4857 19.8178C24.3394 19.4056 24.4778 18.9462 24.8276 18.6835L31.4977 13.6746C32.2659 13.0977 31.8579 11.875 30.8972 11.875H23.0149C22.5916 11.875 22.2142 11.6085 22.0726 11.2096L19.3894 3.65372Z" fill="#FFB800"/>
<path d="M54.2191 3.65372C53.9041 2.76656 52.6494 2.76656 52.3344 3.65372L49.6513 11.2096C49.5096 11.6085 49.1322 11.875 48.7089 11.875H40.8266C39.8659 11.875 39.4579 13.0977 40.2262 13.6746L46.8962 18.6835C47.246 18.9462 47.3844 19.4056 47.2381 19.8178L44.7326 26.8734C44.4011 27.807 45.4832 28.6026 46.2755 28.0076L52.6763 23.2009C53.032 22.9338 53.5215 22.9338 53.8772 23.2009L60.278 28.0076C61.0703 28.6026 62.1524 27.807 61.8209 26.8734L59.3154 19.8178C59.1691 19.4056 59.3075 18.9462 59.6573 18.6835L66.3273 13.6746C67.0956 13.0977 66.6876 11.875 65.7269 11.875H57.8446C57.4213 11.875 57.0439 11.6085 56.9022 11.2096L54.2191 3.65372Z" fill="#FFB800"/>
<path d="M89.4423 3.65372C89.1273 2.76656 87.8727 2.76656 87.5576 3.65372L84.8745 11.2096C84.7329 11.6085 84.3554 11.875 83.9322 11.875H76.0499C75.0892 11.875 74.6812 13.0977 75.4494 13.6746L82.1195 18.6835C82.4692 18.9462 82.6077 19.4056 82.4613 19.8178L79.9559 26.8734C79.6243 27.807 80.7065 28.6025 81.4987 28.0076L87.8995 23.2009C88.2552 22.9338 88.7447 22.9338 89.1005 23.2009L95.5013 28.0076C96.2935 28.6026 97.3756 27.807 97.0441 26.8734L94.5387 19.8178C94.3923 19.4056 94.5308 18.9462 94.8805 18.6835L101.551 13.6746C102.319 13.0977 101.911 11.875 100.95 11.875H93.0678C92.6446 11.875 92.2671 11.6085 92.1255 11.2096L89.4423 3.65372Z" fill="#FFB800"/>
<path d="M124.272 3.65372C123.957 2.76656 122.702 2.76656 122.387 3.65372L119.704 11.2096C119.563 11.6085 119.185 11.875 118.762 11.875H110.88C109.919 11.875 109.511 13.0977 110.279 13.6746L116.949 18.6835C117.299 18.9462 117.437 19.4056 117.291 19.8178L114.786 26.8734C114.454 27.807 115.536 28.6026 116.328 28.0076L122.729 23.2009C123.085 22.9338 123.574 22.9338 123.93 23.2009L130.331 28.0076C131.123 28.6026 132.205 27.807 131.874 26.8734L129.368 19.8178C129.222 19.4056 129.36 18.9462 129.71 18.6835L136.38 13.6746C137.148 13.0977 136.741 11.875 135.78 11.875H127.898C127.474 11.875 127.097 11.6085 126.955 11.2096L124.272 3.65372Z" fill="#FFB800"/>
<path d="M159.495 3.65372C159.18 2.76656 157.926 2.76656 157.611 3.65371L154.927 11.2096C154.786 11.6085 154.408 11.875 153.985 11.875H146.103C145.142 11.875 144.734 13.0977 145.502 13.6746L152.172 18.6835C152.522 18.9462 152.661 19.4056 152.514 19.8178L150.009 26.8734C149.677 27.807 150.759 28.6026 151.552 28.0076L157.952 23.2009C158.308 22.9338 158.798 22.9338 159.153 23.2009L165.554 28.0076C166.346 28.6025 167.429 27.807 167.097 26.8734L164.592 19.8178C164.445 19.4056 164.584 18.9462 164.933 18.6835L171.604 13.6746C172.372 13.0977 171.964 11.875 171.003 11.875H163.121C162.697 11.875 162.32 11.6085 162.178 11.2096L159.495 3.65372Z" fill="#FFB800"/>
<path d="M17.7403 3.73738C17.9766 3.07201 18.9176 3.07201 19.1538 3.73738L21.837 11.2933C22.014 11.7919 22.4858 12.125 23.0149 12.125H30.8972C31.6177 12.125 31.9237 13.0421 31.3475 13.4747L24.6775 18.4836C24.2403 18.8119 24.0672 19.3863 24.2501 19.9015L26.7556 26.957C27.0043 27.6572 26.1926 28.2539 25.5985 27.8077L19.1977 23.001C18.753 22.6671 18.1411 22.6671 17.6965 23.001L11.2956 27.8077C10.7015 28.2539 9.88987 27.6572 10.1385 26.957L12.644 19.9015C12.8269 19.3863 12.6538 18.8119 12.2167 18.4836L5.54659 13.4747C4.97043 13.0421 5.27643 12.125 5.99696 12.125H13.8792C14.4083 12.125 14.8801 11.7919 15.0572 11.2933L17.7403 3.73738ZM52.57 3.73738C52.8063 3.07201 53.7472 3.07201 53.9835 3.73738L56.6667 11.2933C56.8437 11.7919 57.3155 12.125 57.8446 12.125H65.7269C66.4474 12.125 66.7534 13.0421 66.1772 13.4747L59.5072 18.4836C59.07 18.8119 58.8969 19.3863 59.0798 19.9015L61.5853 26.957C61.8339 27.6572 61.0223 28.2539 60.4282 27.8077L54.0274 23.001C53.5827 22.6671 52.9708 22.6671 52.5261 23.001L46.1253 27.8077C45.5312 28.2539 44.7196 27.6572 44.9682 26.957L47.4737 19.9015C47.6566 19.3863 47.4835 18.8119 47.0463 18.4836L40.3763 13.4747C39.8001 13.0421 40.1061 12.125 40.8266 12.125H48.7089C49.238 12.125 49.7098 11.7919 49.8868 11.2933L52.57 3.73738ZM87.7932 3.73738C88.0295 3.07201 88.9705 3.07201 89.2067 3.73738L91.8899 11.2933C92.0669 11.7919 92.5387 12.125 93.0678 12.125H100.95C101.671 12.125 101.977 13.0421 101.4 13.4747L94.7304 18.4836C94.2932 18.8119 94.1201 19.3862 94.3031 19.9015L96.8085 26.957C97.0572 27.6572 96.2456 28.2539 95.6514 27.8077L89.2506 23.001C88.8059 22.6671 88.1941 22.6671 87.7494 23.001L81.3486 27.8077C80.7544 28.2539 79.9428 27.6572 80.1914 26.957L82.6969 19.9015C82.8799 19.3862 82.7068 18.8119 82.2696 18.4836L75.5995 13.4747C75.0234 13.0421 75.3294 12.125 76.0499 12.125H83.9322C84.4613 12.125 84.933 11.7919 85.1101 11.2933L87.7932 3.73738ZM122.623 3.73738C122.859 3.07201 123.8 3.07201 124.036 3.73738L126.72 11.2933C126.897 11.7919 127.368 12.125 127.898 12.125H135.78C136.5 12.125 136.806 13.0421 136.23 13.4747L129.56 18.4836C129.123 18.8119 128.95 19.3862 129.133 19.9015L131.638 26.957C131.887 27.6572 131.075 28.2539 130.481 27.8077L124.08 23.001C123.636 22.6671 123.024 22.6671 122.579 23.001L116.178 27.8077C115.584 28.2539 114.773 27.6572 115.021 26.957L117.527 19.9015C117.71 19.3862 117.536 18.8119 117.099 18.4836L110.429 13.4747C109.853 13.0421 110.159 12.125 110.88 12.125H118.762C119.291 12.125 119.763 11.7919 119.94 11.2933L122.623 3.73738ZM157.846 3.73737C158.082 3.07201 159.023 3.07201 159.26 3.73737L161.943 11.2933C162.12 11.7919 162.592 12.125 163.121 12.125H171.003C171.724 12.125 172.03 13.0421 171.453 13.4747L164.783 18.4836C164.346 18.8119 164.173 19.3863 164.356 19.9015L166.861 26.957C167.11 27.6572 166.299 28.2539 165.704 27.8077L159.304 23.001C158.859 22.6671 158.247 22.6671 157.802 23.001L151.402 27.8077C150.807 28.2539 149.996 27.6572 150.244 26.957L152.75 19.9015C152.933 19.3863 152.76 18.8119 152.323 18.4836L145.652 13.4747C145.076 13.0421 145.382 12.125 146.103 12.125H153.985C154.514 12.125 154.986 11.7919 155.163 11.2933L157.846 3.73737Z" stroke="#8E8484" stroke-opacity="0.72" stroke-width="0.5"/>
</g>
<defs>
<filter id="filter0_d_116_481" x="0.995117" y="0.988342" width="175.01" height="33.2247" filterUnits="userSpaceOnUse" color-interpolation-filters="sRGB">
<feFlood flood-opacity="0" result="BackgroundImageFix"/>
<feColorMatrix in="SourceAlpha" type="matrix" values="0 0 0 0 0 0 0 0 0 0 0 0 0 0 0 0 0 0 127 0" result="hardAlpha"/>
<feOffset dy="2"/>
<feGaussianBlur stdDeviation="2"/>
<feComposite in2="hardAlpha" operator="out"/>
<feColorMatrix type="matrix" values="0 0 0 0 0 0 0 0 0 0 0 0 0 0 0 0 0 0 0.25 0"/>
<feBlend mode="normal" in2="BackgroundImageFix" result="effect1_dropShadow_116_481"/>
<feBlend mode="normal" in="SourceGraphic" in2="effect1_dropShadow_116_481" result="shape"/>
</filter>
</defs>
</svg>
