<svg width="25" height="30" viewBox="0 0 25 30" fill="none" xmlns="http://www.w3.org/2000/svg">
<path d="M3.65625 8.17608C-1.21875 13.042 -1.21875 20.949 3.65625 25.8149C6.09375 28.2478 9.29688 29.4643 12.5 29.4643C15.7031 29.4643 18.9062 28.2478 21.3438 25.8149C26.2188 20.949 26.2188 13.042 21.3438 8.17608L13.6094 0.456176C13 -0.152059 12.0156 -0.152059 11.4062 0.456176L3.65625 8.17608ZM12.5 26.3607C10 26.3607 7.64062 25.3938 5.875 23.6159C4.09375 21.838 3.125 19.4986 3.125 17.0033C3.125 14.508 4.09375 12.153 5.875 10.3907L12.5 3.76248V26.3607Z" fill="white"/>
</svg>
